<mxfile host="app.diagrams.net" agent="Mozilla/5.0 (Windows NT 10.0; Win64; x64; rv:129.0) Gecko/20100101 Firefox/129.0" version="24.7.8">
  <diagram id="R2lEEEUBdFMjLlhIrx00" name="Page-1">
    <mxGraphModel dx="1434" dy="774" grid="1" gridSize="10" guides="1" tooltips="1" connect="1" arrows="1" fold="1" page="1" pageScale="1" pageWidth="850" pageHeight="1100" background="#FCF9F9" math="0" shadow="0" extFonts="Permanent Marker^https://fonts.googleapis.com/css?family=Permanent+Marker">
      <root>
        <mxCell id="0" />
        <mxCell id="1" parent="0" />
        <mxCell id="Nk_9127AkEUvD1Vco7sO-1" value="" style="shape=image;verticalLabelPosition=bottom;labelBackgroundColor=none;verticalAlign=top;aspect=fixed;imageAspect=0;image=data:image/png,iVBORw0KGgoAAAANSUhEUgAAAj4AAAA4CAYAAAD99PKYAAAgAElEQVR4Xu29eUDP2f4//phBGpNh+o19qVuMJTJS1qRPsoxMIUKUK0XJHoa60ujKEsa+vuVSKFoU9SPLkLxDyZQYhrJkS64Ywhsz93tey3vfXuWdZZz3/eeOXq/zOufxXM7jPJ/Pc85n/yM/0B9FgCJAEaAIUAQoAhSBTwCBzyjx+QSkTIdIEaAIUAQoAhQBigCLACU+VBEoAhQBigBFgCJAEfhkEKDE55MRNR0oRYAiQBGgCFAEKAKU+FAdoAhQBCgCFAGKAEXgk0GAEp9PRtR0oBQBigBFgCJAEaAIUOJDdYAiQBGgCFAEKAIUgU8GAUp8PhlR04FSBCgCFAGKAEWAIkCJD9UBigBFgCJAEaAIUAQ+GQQo8flkRE0HShGgCFAEKAIUAYqAYOIjKbuDP4yaoN6XbwNaDkTjN+OsahOdx2Ozr+3bNCzgXem3n6GwzAHr9/qjlYC3hDxStNsLrlFdEHd4EqyEvGDAZ4pTFyA8+TZQcgEmgVlY0deAjWtp6n18s1KjKk7FgvBk3EYJLpgEIutdgKPQ0RwR0Wui7M8Ky+Cwfi/8DaVwlQJD4aW3wkWCsoJcXDaxRjfzt3IGbzuKj/59g+iHVJbPClHmsB57tSqZBLezc/G4hQ3afV2zirErx+WsfBhbd4NmFSnCbi9XRHWJw+FJhveYH41/YqVQjNQF4eBcuAkCs1agci78Xcq3itXnHTSvm/iUl+JW8TWcSVmJeaF70Dnuf9jh9va9khyeiEZ9NwAB6bi3vg+q2gzlPS7Btv4N4XN/CQp+nW0QkiLJXwr7zstguuoIUiZYv8OxyEclyZyNlj0j4bjPMPIRIuH38U0h/VJ7RpKJ2S17ItJxH/73lspbli9GcbPusP5aeE9KtvVHQ5/7WFLwK2Yb3scL74jqk5XF5cluDKnriaSa45D6UoQBle8BfZMgYBD9kBzGxEZ9IZ5TgF+1KVnOfLSwW4BC2xW4nD1dvui7LoYY3dH9H4YTx5PdQ1DXMwk1x6XipUhVQyTIX2qPzstMsepICiZYV433/2j8Ewu7BJmzW6JnpCP2/W8H9E6xmmSmTb6GE+vfqiXdxIcAnHrfFO3/FwfXHmGwNtTEenEpvmv3I8hsoN1QqwjmZO/PMCjfQMSnJBne3ZbCYkciwuwbVFGPBTTL42kw+Qj4JN7HN4X0S+2Zi1j6XTv8aP32xCfN1w4F07MrRmCSvfHZoPwPj/igsrhIcDVjP37/oiuc7Zq+F6JfKTX4UF8yiH5wstzlqcufliA39STuNeoJFxu5r7rysx0WWmQbZEErg1hyFRn784AOP8ChpTKxKSHj7bbUAjsSw1ClLvOj8U8caheXfod2P1oLIj6aZaZZvh+q2r/vfglLdRlaif42xCcX2X9YwU7FuN+5UA0tHyEDeB/fFNKvqiI+7Kp6FsxPVjByY5CJrVID1/NSZYlPVfTlE27TIPohhPhowrgI6+wtcWbWu4sUl+Rm4w8rO1S5y/xo/FNFic+7l9nf0To/cOLD5C13IWrPDaDW56jdbgCGudqhKb+IkNzOxt7YA3hm0gi3Hv+Fpi+M0PknX+iqFpJGfM7t64lL8fuR97wpvvcYA6fWpF6hLB+Hjv6Op8+KIH7jhBWk7qgs/xCO/v4UDy6kw+iHzZCVIpVfxoF1MRC/rIbXMIeHjyfs+I6VXz6AbYlXUN30DUpe1MYXf5lhZFBbFMefw122bQfM6FCMXbsPo7yFG/oPcFSrl2DaWBcjxstqrwFzD/h4ysfNhEZvZ5PU2tFTeGzSEX3aX4WfY4hKRI7k2Q+sQ4z4JbgmfODJr9Arg9vbflOT8UixfVYkxhunFQTbMuQfOorfnz7AhXQj/LCZyFIqkwcXcMlsDCabXcLOFDHuV+8IN09XGebajVM6wcfj0eyaOt6V42UEI3zjPAhjnFqDqWIpv3EU6yaMxI/pxhi5egWGNAJqf9sb/ficF4Pnrqg9uIEa+NO4O0YHDgSjTuxP4MSmWybaZal13JLbyN4Vg6TiV0Sv/0RLTz+Z/HlXqzESJtM7I8DoG2cMGuMkHwuk8nmGIvEbOK2Q2hpnpzFJxXhFnvmzpSf8ZPp6HWKZ3jsh3Pk1klTtTp9nZccSBcYN1PjTGN1HB2IgAVhum5dgNmYyzC7tRIr4Pqp3dIOngp/Q2DyJZsefuwti2ESvfBHq0gzXxfE4d5cZ2y1YTQ+FiwnvDwToHqsDMUng4G4JTz+5P9A5PKl+nNuHnpfisT/vOZp+7yHTPfZdgbLc5XkOsbY5OHDkHqp92xPfD5PKTsGuLpnBN9QF9csKkDxrKLy3XoHt7L2YZke+07gThvI5L/3j4WS+ZddVVPtK0Ucpy5vxodxPhy/nZcH5gXA4v05CPIkYPW/6PTyU9E+foij8XQPxYXR7c1w2nv71HOVf9sJYRTvV2TRnf9tOlOPLGn/CuPtoBA4kvkGIDjWTj12zfQgnPhKtMqsr95u8fNnPMr5L4zxSEZusmO8xtE+vvMx068oHTHxKcHgKUc7HC3F6izshO8Rw9oyBTaQNjpCaFuvnsRjSKgMBxevRhyFCJQkY0SYZIx/pzpGyxOdAE7hMicXWMHvUZetj0jGJqcFoUYY719MQRBQ7biCXGmGKuq+nBRFnG4eB0lQfk+JqPxavNvyGWPcGkJwOgZVzDoIJSfIpC0OLqfWQnhkIC8bc8yPQxbs6dv4aiPq3TiPSyRmRt5tg3I5MrPIwB3Ij4Nh9JdrEXSDhZi4EzYSD2499hQ2/xcK9gQSnQ6zgnBNMlNsHFpJ8bHJ1xrwGG5DL4EJKdxP8bDA0uhReslRkCZlv22Psqw34LdYdDSSnEWLljJxg4sgHn604bm/7TR8GCfWfOrakcPbOdaQFEfIQN5AL+0rkMhFbusBl6s9YObolHjO1M0H1sa+QPKOz5oYnPnfbw39FguZ32fENgKhXCo4H2xCyU47cn3qgf+FPuEB0wKT0Fv6bGgSzsb8h5EQaxhOxVavdAE1IkShX47ULg8+eQTCpVyiJcYPlnBZIKVwOJ0YvhRCfMl26rEOWWnBlJpljU5phdq1kpC7uhgasvo5CYegZnJIVk6pGfEjtxSZXDBD1QsrxYNgQ4lae+xN69C/ETxcIxqxqMvIpwdnl9uj/s7weQXJsCprNroXk1MXo1oDr76jCUJw5xRT7l6P0Vh7Wu/ZAGKkl8R+0BGGqdqer9onIZql9Z+wiensmmNTQlcTAzXIOWqQUIqLjQ942xbB0ccHUn1didMvHbB1fUP19KCSy06oaTP1i3no2hS9NuZcTOeetdwX3T8r+QKfuSY5hSrPZqJWcisXdGnD2O6oQoWdOQW/tLqsfB9DEZQpit5L0T12uJi19kjRtJVyWoQ9dsDwlDoFEeOWMX3FKhWfGMUy3JmTszkWIhnfC7Gdcmr8F8WslFzZgQK+FaLPtJpY7EfF+8f+hObN7Re94+DqdXQMhPjWf6EoJ9v+zA4b9sRL3En/Am1uHMPc7d2zlfSjxaLp9+RsFWXT3x6AlYaR0oC5X95I+qXL1mKrEp2gTnBwPYkx6LMa0Bltn1H21LfYwGOj0H1L7W4v87R7E3+Yi0t4Rm1x+wbVZzfXrENFt3fZREeKjTWbV1eTLmJT2eWQ4aguyyYr7HoP69ErLTD9B/mCJD6ssvTMwU6kolEzgzbshzicH1zpvgPHoZ9iRvx0ebKRFgrTJc1F9je6qeI74BCD9Hk+YJIQwGQ+FkYw0aEgBKBlRGXHslhh0PABZtxaiK4txPiLadcBGtywc/mYyWm8fiHOsQ2D+dhFrJ59EnzXcLjL2+6/i8ZIQEmn2+1xYC9gutsbue4kYATJJWQ7C8YAs3FrItQ5Cntp12Ai3rFvEkZFccKgF96zUYFWMvIw4U8tBxxFAnpc30Q4dNroha2MJHCuIG5t/fptvynDSoJAaVmbq+W5eJiZrUcgTSg6TPfDWWzSs/92iTU5oO7Up4p6QCV4qlDIywZr6otrue0hkgNZIYPi2zaLxKHk0N8ny+vQi+hGSR2t7TwWHNF+tumynS5ZacS1GVL+WGHc+ECceLIeDVO+UattU9JxxMm2nomncE0LAZSAgxs0UvtV2kwlthIxEqMqnOKofWo47j8ATD7Cc+5haXZN+u9PsrLhvmSH6UTIYOBk7TxhhjKEveMx5/TFZW4jMQI5g50cQXd/jLWDCJLb22SDkK9YaqvVdv/6gOAr9Wo7D+cATeMABoN6uNl/ME5+A9HtYz67g+PEZSWvShMtyh0ceCgg55H4SHJ7YCH3TpyDnWhg6adIBbekgfeM5RxZ3tothLbUNnMMS695YZLkKF5LGoJlK/ZheXx7G9o7F7IDChhdJwggYDzUSVPeiBq/q2DKCUL/XOnTcehWHfEg8RGAqrCx2CBqNzMecnGtgu1mWAK9/jMOpySkoCtciaxUdEmIfgmt8dPRbqX61TPc8wswL+mxS5zzyLnx6JWWmzdQU//3DIz4kfHjoaRvUEFmi9xp+1S/rcRnriL3OByPr6nBkkJXgjznVUc+qC5zdR2O6gPCyenGzqpPSR3zS4Gvsgq0dp2MXiUzU4PuWvXIYlloQZxUJsroehOg/6qBJx17wGOyH8QohVfb7UCm0ZSY+l63ox0yWprPY/99x+i4SeZK1jpXDSBH1vsvo+O/WmPFapThbxRjSfI3hsrUjpu8ikSp5BzGMFBXuezkTVyqE2xX8bPeW39S1U6EixEexQFmg42KIp1pxs9K7xdjk1Bz+j1QL3jmSHdGRn2A1EZ8rP8Ou9QwUD12GtcPNeE0gRGnGFFySrtiFRHz4qIYmXdYpS307QEi0rDBXjPNFxTiwJADbP1ccozIuxYT8Nfd/pFaEfTqkObpFdFQgHtoKMUk0qDAX4vNFKD6wBAHbP1dqS7/daXJXvO4VD8WytcMhQzhxBqZc4iMBgvRHK+sQTnwE6J6krBC54vMoKj6AJQHb8bmQzRvaSKLqBgwBslQtbuZkeg3B/AJITQZ6bEjbeLhJmo+KaYzWKevWsSmmun05O4kKIaFCpjT+GS1jKy89jzMnCnEzbwN+/Pcx9NezYYfFLNpLB/kS2m/d9mFw4sPPKZrnEa6mS59NVtr3CLJJfX5ZLuuKykyIlnxwxKeMpAoCvtiDkcnGGhSOXw3F8YpInEHBqWSkHUjHgT2JOPmwOzZeOoYJmjMrLB76hK1/ouQUPdpLxy6h8hvIOp6Gg8mHkLQrBRdqTcbR4tVs6kMj8SGpsubdItBgxWVkWywkq+VohbSVohj5ydhUN/HRa6wVws1A39SmjQY2EvXP6DMw/u9QJT5cFC+kOv/vShMUcWKlz1HrwRZ00bc7UQjxYRfomnW5YZg+x6sJWLLzKsYX/SZlw2nzPpJSbY0jarsZlXHRNpmx0ZOQ6kokRtVJS67GwLffJGQ7bca+VR5ofURLxEdpMhcSFdEmG4UxC9KfKiY+ZBdTjG8/TMp2wuZ9q+DR+kgFIz7Ku/6UfZRwWaoSHy5isg/jUl+C2VWuj/iUl5YC9erhSz3j4ciwqY6disq6pdkfqfjyqiY+JZkIGz4QoprB2Ll1Kno9WcXuLNa9E5ZfaKe8HfERYh+VJT4ymanObazf0TaPcPagby7UO49UtU+vlMyE0B7gAyM+THi2GamveYDg6/awnGSEjbcIkZFWavEppZD6G3Fr6in0ODtRng4iq+aILh2QNIaQh+naT4rTJ2yNxIek3Ux7r+FrfLRFCEjBmBiokzkYwY1/4dIczI+tPRoFkxgF56MS8WHInqnXRcxnwqn1ScqhuT8eqa4W2bMb2uBWUCOMzAlSSLORb6g4f22r9+tMB0s3oleFcCtDLKnmfatvdu8OrceEaJi41FeI+siLLmXX9y6fEogdjaOPCDmVNsWnrNInH8Wj1eRflQgM0bURB+EWa4tNpr2xmdQyPCFLKNnGXVKQLS5uhu5M8bMQ4kOeaa5FJom1AjRGYlhZasO1aB3sLScBCukfmd7vt0JWvjV8Xf5QioRxZ2vFYvTRR2CGy/34ySmdEHcFbJSdNLfLZBIU0pCyMe+HFTnIztrXBblqxEsI8QGpVSLRgs0k8quYhmSKrMXFaNbdGl8bmPio244+/QGK1jG+ioE7E1y2TT62/VZZyLf2Bamd1vzTF/GpgCxViQ9LWhd8K0uL6yY+jKz9UD12B9rrGY/4RhrGTDqO8Uq6AlIcLtVJZcw4fHT48mMTSHpMaORE2MSm7BOlNj5CXuKgoDdTSkWAr+ZNMWwZwk/NVeYhBf3T0G9lHRJmH38I3c6upO9ymTFn/yjJt1jXPMKd26RvLtQ5j1S5T6+8zIRoSIWIT+v4l6SYV/FchgzMadoXK7+ah1OXQtg8sqAfH+EwVZrcSfFygh9shuZzdT2NSUqplQtypuVxRY2MG2YKhTsnwfMsKQC87ofPxprIFZk4wxg3S4gnSXPl2vyMyjk+/AR3WdYXnuXXkUZ0uOLibhGFsigMl7NOg1/WRVJDw+FRkuCNgIdhCH8yBO1S/OS1KGAiJjPR+DjnFFllE5NU3UUS3uUGxRK2lSSUzhTSklJptjC1d5qf/BlSHJjgHYCHYYn45zOmmHYz+h5X+DYhTmZeKfCQhm3Z4sTeSPPLwkWSzGV7SAiYd8BDhI05BcsK4sYV8L7FNxMnsIXeGn9sLY0X6sj6zhRikxRToeIqS8Pkw9b4hMBG79lSAt69SFJWncJhuZMrVufgGoE2AUbYJi3sZdNa4ejGOPsehMx+/xCRxGG/ZuuDakN0k9Sg8AXA+RGuEHVNIQSCDfHpP8eHeUabTBxOaZelNlx5ot5XZq88Bm8WIk9UjnkZnkieDZUU4EWS0uyEcMudXEE8rzMj2gTAaJu88J75Z2XiQ3SNkL81feV1a9zf32Bhngjl8zLgST52TZX4qNmdFv3ga49qi26SxQQnG8YPuIq6IoUwtJoaiA8XpbIRUBvCRTNTZYXEJcSHmMErpbVCNEO//nBEvS/iX5LNCIyx8X16szAPovJ5yPBM1n72k5p+8GTzMh9prIgsG0bh/sGxnOzYDQ2OSB9/lhQJc/5TfaLj0vZFq27h2IQyRNiL0DVzNYhAdY9naDgwvjMWq+gK619YnVTBrEyPL2cPMVQnPlzE6rKCLPj5ptEinCOHMOo8D1RTOvsB0f+CYDBVUFz9SjT6xt/HwB2zUDtZy6YYdmMAqQNTmYdk+sf6d106JMw+iDEKPMdHs8yYtYpqpFDXPMJkRdT0QdUmdc0jVe7T+QBDZWQmgIToJj4ZZGdAaDrZ3vEQN0qfwahuEzSuWwMt/KIgGsVMZRcRNXg4VmAG4pJ8BJyEnIEIx1Ck8+3BpB7Mv+H3/Ur/Db2x/PxWuDMBExLqWuo/BSl1RsCz7TXEH3wB9wXLEMicfEUU12TpU7g2+BaOZOvsG3E0MhvOws+z7TnDV/sx356LPXfv4PErE9Qz74ppfhbYsn4P7t55DDBj81hEdvU4EMe6CSM8/4OGE4PQ/l48rv31FdIjduCBVSe4zo1mx16SuRT+/kn4y30wejwtwM1m4xE63R4Pl9qhX4Y5nL+xhePABriTmIT77suwzL2l3PkUeWG6RW00c7JCkUiE264/Y83UXrJt+swuiMyl/vBP+gvug3vgacFNNBsfiun8iV8lmeswc85ucjrqNLR/mIKch68gXrOP7V9bT24MHHb+SPrLHYN7PEXBzWYYHzod9qcrihsH5Ft9U+fZjsxuIiLf/zTExKD2uBd/DX99lY6IHQ9g1ckVcyP+D7/MX4nTN0rxzKgumjT2wES/ImxZeZrVSZN65ug6TaqPKkIv2glfH2HvSq4mYNrYhbjexReuNQ4h/tcWCFwTAXfZgSNEJmHDMSSxAQa3eoL6AbsR7sQoKUlFJEyD9/zfYe3dD00KCvDYbR4WEXmfiXDE3D13cefxK7afnsuPgxGN2k+fLmuTpVZcOf3xEb2GZ/BI1M4T4+tBTsgOnI8r5mTH3OReEC9SwMVhFqJFo8iOwatImDYWC693ga9rDRyK/xUtAtcggtddab9Vw/KsLfiI8NozGCNr50H89SA4ZQdi/hVzshtyGMx3bBZkd9r8FSsb7/n43dob/ZoUoOCxG+Ytcke1eF/48HrA+iaPifAr2oKVp2+g9Blv41EisK5Ky6/kcBAGTS9Cv5luqEMiFs/r3sK/IjNhZmuL8UF+KNooQH+c7xJb84HotSeCR9ZGnvhrDHLKRuD8KzAnO0SXbNbsGzNU9KPrND9YbFnPYQVO1xcdH4fPdclyyWb4WF3BxmFrYTLOAln7X8HO7jMcF6XgiykiLCNpzi+h4Ptk7QaTonc+jRb6AH0cPsMjh+XY60PoBKtvesZDjvPYM3MsFvzeHRPda+HIkdcI2LAYfcoVbI7x712nIYrRLV2+nJln5nJ++BX/jp/FFqxnbYdxzY3hsYixHbJRpI8LFmfXw5RT2g8SLdqprBcOs6KxrvN5okNTkW0VjDk97uJgUQ94ma6AX8KfaPd//8LWcCetOwAlt09g1eRAJJl4w8vmJo5kWyNs2wRID53WqUPE5sd9rss+JqOXeBGvs0ZkrA6YFa1LZzXJ7L/yuU1JvtrmkSuC50Kt88g78OlvIzN93EdYxEdfK/TvghHQWOMj+G36IEXg/SMguB7h/XeV9uBviMDpkCHI8k6EjoqGv+Go6ZAMiQAlPoZEU0BblPgIAIk+8sEhUJY2GT0n/oLBOwowLFPodvEPbhi0Qx87Akz6ZeRvmJbInZNGfxSByiBAiU9lUKvUO9dxZOm/MWdxFDn1ohN85izGv2Y7ay/6rdQ36EsUgapBQHIsCJYDsjH9+CTkDQ1F3W0nsLrPe7yfrmqGSVv9oBEg9ZZhY5AxZDtmV9Hlph/08GnnDIYAJT4Gg5I2RBH4myPAnHb83xfkgN/mYA74pT+KAEWAIvAxIkCJz8coNdpnigBFgCJAEaAIUAQqhQAlPpWCjb5EEaAIUAQoAhQBisDHiAAlPh+j1GifKQIUAYoARYAiQBGoFAKU+FQKNvoSRYAiQBGgCFAEKAIfIwIfGfEpRuqCcCTfJmdsXTBBYJbum9gNJxCym2CBI3xL5+HkmgFaD7rS+D1y0FdWvjGsu5mTg8Q+pV85LpPrCoytu8H8PQy8OHUBwjlFgUlgFlb0rQz2BtK3HBHGbz4roC/vEDPJbWTnPkYLm3b4WvEwdilM5OTfBY6+KJ13EmsG8NevVAZCHe+UX96DmRN3AJ3IpcSPivHSJgBTaq3AhMdLcYo/pKX8Mrnywdga3QyoRDmi8WDE8aywDA7r98Jf+w03bzfi4lQsCE/GbXIg6QWTQGQJUULpO88KUeawHns1ds5Aevl2o3urtyW3s5H7uAVs2n0tv+rlrVqkL1MEhCPwkREfZmAScgR7S/SMdBRwJL1wIHQ9WUJO1m0//CxG7K/oFt4n2D2kLjyTasouCjRMjz6sVjTdG/Vk9xBysnQSao5LxUvmhsT38JNkzkbLnpFw1Hutha7OGUjf+DuXLHT0RRtmZfliFDfrDubqL0P9cua3gN2CQtgyF+OqnQRXQg5Gb4/hZ0dg/4nVqJJd68w1IV2OY2qh9KoPwguPBKJHn/UwkV4f82Q3htT1RFLNcUh9KYIhtahkW3809Lmv46JNAyEtIdfrtOyJSEcdlxqrfkpyGBMb9YV4TgF+na3tYgYD6aWBhlmxZnIwv4UdFhTaYsVlckSClHgq3nFXsQbp0xSBCiHwERIf1buCKjTeCj/M3FPlNCgXAYe2Y7Ts+gLhzUiuZmB/HtDhBwdU4nXhH3pvT14hdzwthEW2yl035PqDDG7gcHhfA9dwj1NlYDLMScXcXUSErYNcyab5pwWzNF87FEzXfkR/ZcaEklyknryHRj1dYKN0HA+5QmSpEwblBuDQ9tFVprPs/VbkdvuX5F4wecCJu5hwlvlJfsInx/Nn7EceOuAHB+7KF4P9hNyhZpCPabjrS2+73Duql46qvmYYvdTbmSp5oCQ3FSfvNUJPFxv5FUNpvrArmI5srWSvSrpCG/0EEaDER4/QJVezcfErO5XJ4RPUFG1DZiMZZzDrf1ou+XufUH1sxEcTVuzqfxbMT5KLe3XeymgooAnZyL6Ir+wUJiRDNa3QDnuCeZHCje7835iLKbsUztMR6TBQZyjxMRCQhmpGlfQaql3aDkVAHYF3S3xIKPPQ0d/xlO9H7W97ox+5Kjf/0FH8zv9j404/oPnDXYhJKsYrcuP6ny094UcuIW2qsNzTtNJhcsa7ovbgBmrh89rtMGCYK+zYl65DHH8Od58VQfzGATM6XENU/F3YjA3EwNaaik/45/EAFy6ZwTfUBc2uixF/7i6eFYlxy2o6Ql2a4bo4HufuPkOR+A2cwp3xOimeRHaeo+n3HhjjxFwMyHxa/t4bpxXwtZUKgNRyHFiHbSfK8WWNP2FMLjIMHMi/Qx4pv3wA62LEeGkEGH3jjEFjnKCxq3xzin1xmNEBxbt243B5C7j1HwBH1doiprZjVxT23ABqfV4b7QYMg6tdU3Y1rdrOtah43LUZq9Q3uQpJUFaQjFlDvbH1ii1m750GO/LHxp2Govs/FDF3wgoy8LL8QzhKhPzgwiWYjfLAF0d2I/bal+g+cADceqjWmXD4xIhfwoj87xvnQXJMdVqxBLezjyDl6Ck8NumIPu2vws8xBNaKURaF8df405hcoqlND+Qfkupb/KPZqLkzBeL71dHRzVOGG/skqeU6sDkO2U//wvPyL9FLTb/4iE98MSb/tQ+Hzz9D3R694eos1W11zMpvHMW6CSPxY7oxRq5egSGNAM5muMtRb2frthPSKc16JrXDBxdwycyX1Wfupx13JfmNmQyzSzuRIr6P6h3d4OmqYJ8Mvkd+xxfde6CdxuIh7kscppfRatwOxEe6yZ+VlKH0eS3UI+8q2dgKX9gq2SrLV8EAABP7SURBVFM4nF8nIZ5EFZ83/R4eqjZC5HFs7/+PY3lP0fiHIXB4dRy74w+joPlU/CeUXEipgfjIfUgN/GlMLnMNHKjT7rSpItPOkZSjOPXYBB37tMdVP0eEWCunurT7KxYdPuJzDrG2OThw5B6qfdsT3w9T9gO6/aDwMejui+ZRMj5qW+IVVDd9g5IXtfHFX2YYGdQWxYyv1eM7lXTJNxQupjdwdN0EjPwxHcYjV2MFp+joTSYHLrsr18tqrwFzDx948j5Lpzugf6QIaEHg3RIf4tTuXE9DEJno4zqvw7Xd42BJNLusYA1+sI1Dr9RoTJSsR8fQWkhOXYxuDbhag1GFoThzapLs9ne126EPTyETzWMsPL0F7oTsSG7vwRibSNgcIfl16zcovXUakU7OiPyjFSav3YSG5FbkkBorcDl7OtTrGsvJ83lY79oDYViCgl9nw4o5sTZvPVx7hIEUBbCr0fLSW8hb7wrmn7r7D8KSsDDY1+Xy+emT+Nw8896hufjOfSsGyiZfbkxjX61F/nYPNEUuIu0dscnlF1wLa0duKnfFAFEvpBwPhg1hT+W5P6FH/0L8dIFEVLTcEMD05XSkE5wjb6MJmUgyV3nAnLQb4dgdK9vE4QLJrbCvlhzGlF5j8XjhaWxxJ2SHTFJ7xtgg0uYIqZuyxhtZO3+g1eS12NSQ3JocUkM5Dy9TJEJ87pCizQ0D0GthG2y7uRxO5G/cqb4Mhocw9zt3bB3IOXxJ2R1cj5+I78YfQvXuoTh6IAhdapUiwc8Go36bibOkHoc9hV6Sj02uAyDqlUJumbchBLIcuT/1QP/Cn+Tj0KTM7HvOmNdgA3K3uBNcb7NtD40uhZcUe/LMUvvO2DX4LM4EW6NmSQzcLOegRUohljtpT6Rw+nYX7f1XIGElSf883ob+DYNQf18hSVsxrrkIm5wccXBMOmLHtCZMfinsu6+G7Z4L2CArDOaIT2L7GdibFoHvmwK3E/zQdaoR1p0TEdmqY8bI9b+pQTAb+xtCTqRhvDlQrXYDNCGkQHJsCprN1mUnOvRsrgXuXBRheKfZeCatp9GDe11GfmlBhCiKYenigqk/rySp38fY1r8hgurvQyGRMTtJsYQiWn9tFy+LH3MkrDS/rGeFLoO9MWvmVPTnU6PM+A/N/Q7uWwdy9XyKdtjdH4OWhCHMvi5X85c+ibNVVs8J1u2H48mKm0geDSSMaIOxL9bgUsTnWHGwAeYFqRMfJqVt33kXBp89g2CiiCUxbrCc0wIphUSvBefYSJqQ2K/zvAbYkMv4Ik7GNkOjUeolJz4lOv0V8zGO+IQ+dMHylDgEEkdQnkts0SkVnhnHMJ2/rkHVD1ZmDPr7osHYzoWhxdR6SM/k7suS5Eegi3d17Pw1EPUF+E7GF1wUDUen2c+4Gitz5kTwVASZjcVvISeQxik6GjRhCp+lerwBv5G0aANSdB9i5YycYLKI9qG3dVFmUzkE3i3x4ft4LqwFbFf3Rfq99ejD2DlJlwxc9i0S1vfBg6h+aDnuPAJPPMByB6kjzVcqQlQyeObSuma9kTFTuRDwdEhzdIvzQc61MHIzFuOPSWidkImsWwvRkRjeQ3zDTiDafuzz+TzxYR/iJq586UQhc/IHEJB+D+vZgUiIkzXGUCOF1Z1KuqUsdggajczHnJxrCGM6VpYAr3+Mw6nJKSgiE5xT26loGveETKjSvpUhxs0UvtV2417iCO07ytgJ5xXiX8bCXfoq46BsF8N69z0kjqiFY1OaoXfGTPkEwYzhdAiad4uDj7Q/bDvHEZx1Cws7EqL6EPiGdUCaf9rrDDTUNrBY7IBHXgGZXPj2ymJJJGMk8ufkEOLXCUWbnNB2alPEPSETnQwCQlBMfVGNHYfmCl+2H6EW2H0vEbJHVLDn+mqG6EekoJZthpfXi2g8IjOkttph7j0TrC3MRCDra/MR0a4D9nhLdS6DTP69sK7jVlw95INm/MT1o9Iqn9OfV/EvESsTUBHW2VuSd6Wy1YCZlpRMsR470aln4axhKemzINx5PE3WFiKTAwL5ESoXlrJ1SiTi09WZj7jqcExkIVRwajf2ihKQcOQMLpaWAzVtseQss2DhhK+uX1y/DwSk4x7xF6zVkfSY8VAj2WaHYqJDzf2fygg79/dCZQKvhCuPu5mCHkgSMMJ4KF5EPyLkSWBVOYtPKCyU9FRFpoL8FffODo88FMgMhUsF9U2fIvNpythUYgyC+qIuvys/26H19oE4d2o+uzhjiNraySfRZ40/u5AU7jsV/boG/8q4RyInS+KPAhh/1JXrC6tzG91YX87/kw4lo3+iCKgj8F6ID0N07C3Jipl3EOfCnJDY/5hMsZkJqawwF+LzRSg+sAQB2z/XTnzIyte09xqFiAo3yDKyYjP1Os9N4MQ6WGN8Fa9STKldJSpnvBqMXmXyZduN9tK4I41z2I/UdpqwJC6io8KEraHfrCNnamcVa23S4Gvsgq39GIfeGPNNe2MNH4GRtVDGkAovnA/Owi0OKHUCpcNyKk58dsGTWeXJ6lWY4ujWmFHCkFJ/5Dk1h/8jRcLJfJys8pp3Q0RHbQSFb+O1yntK2PPPFA/FsrXDYcaP6V7iDEy5pBAt0DBW9TFqKVglEYnzZ06g8GYeNvz4bxzrr5je0FzczBb5runJy1Y48eG6qd1OdOkZ967iRPMViVgJwF1DzZThCmxJ6u7EAgzuF4ELA+QkXxvxUV+AyCdRzvbvyogO999PsfHWMUyQZvUUiU91ssOs9QwUD12GtcNlmoHEGVNwSRq9FTB7sIRgxmsV+1WRqSB/pbm4mfMP12Q+TQmbK5UYg6C+aBg4G1EbhOg/6qBJx17wGOyH8Qppwcr5Ts3EJ83XGC5bO2L6LhJtrMH3JXslhi21eGe7egWInj7ykSHwfogPqd1hohhe/yXFjUe/xTL7UxiXzUVmJFdj4NtvErKdNmMfSdm0PsJMxDoiPnxoXZbO4AXArfLiZGkO1hghfEtp5YxXH/Hhx52imfhwjozJpikXsrIrnJDqurfeaiQ+PGFowKT1LLCQMKNohZA7N3dyK9s46b9rbEe7VitPTCRdUwrUY2+w1BbxUSU+PCaHmC3L01FAVro/SlOMss9yEZaQ6qqESPoAP05TXcSH749a2/otVj/xKUFm2HAMFNVE8M6tmNrrCVYx49AQ8VHd1cXJ9gt+ktZHfAjRKX2OWvVIBEKnnejWM3XiAzbCoBd3AxKfZG9vYId6QTxL8pf3lW1frwzxgeQEZpg54ljAaRIlAbYM6IdUzwwcm07Sm1JxKxIfMJEa1vDeqqiaW6CY6iY+gvyVZuLD+bR9sqMxlLDhZVOhMQjqixb7KL+BrONpOJh8CEm7UnCh1mQcLV7NpgUr5zuViY+krBTPa9VDhp/2haJ+y6VPUAQ0I/CeiA+JyPApn4CZ1sgzX4ZjbOicC/1PgsJuD5mD2g8rciCeta8L/mAJgjXH+PnzUYw23sIx2XKOD4eG1Jet8t6a+BRvglNzfzxSS3UpkzI1o1eZLNg030/NlVefhAjmi4tRv3wj2vaNxeijj7CaKZjhmAmXPksnjuURcSzaNFkTYeGjORfnM2mkrzlsjTbi1rEJJB3D/0h+vl2HENSX4vc2xIchUX7VEcvu1xZKfDjSstyWWeUPRg4Tzo8drTxWnpylTz6KR3JgFJAoQywpiByZE6Qc/lbBno2ubCb1IoppNB77Zt2lhZTqAOsjPhIyuzYichshS3kqjH1KKUTwJYXtmiI+vGxz5vPpC33EhxDAEQfhFjsUx/XYyWe3p8JFi55xY1WcaFpwaRR9uBuU+DTH2Yny9IUUdRbrXZ6ydGyliA8T/VjYBGnBzXC2ELDsbI3WqtfJK6W6SLqcREM3k2joE6K7MnJUwXNlOJ+WgyCFtIyaHQjyV5qJD0uSF3wrS+cqY1OJMQjqi2Z7CG78izwFWELsvs0omMS8BHNkl5oPFOQ7lYlPfsQIHHSLxchMzVFwTWeH0UmeIiAUgfdGfMAf0rXh+WCFugzOeNf0laekOON+g4V5IpTPy4Bn8mxmeSonPmTiSvNtBZecacg7EywrkI3o0hlJnmfZol1SCqpee6MHIXb1lipPgTDFjmZeKWitk/jw37msEHlQnSz4MHH+tDyuwJahNoR8uIq6ImV1A6y364Rwy51cIR/TR9apBMBo2wVS96Olupl5jnXkYhIGv0hSe1y9UX5EF3RYSQgiXxhdRs7JaOWSg2l5XAGn9JnOSZ6y4mLVegm9ikTaNHYpwiomjVAWAXsyjkyWnGgjPqEwi2aKTrmxlJBVbJtRhZgjretgDrbrFA7Lnb+RWhiFZwKMsE1HgTdX2LkZfY9Lx0/a5mXmIS1uLiLkldRQ1RbJvy/H3qkCdUx8BMqGiyByKYgHREf52qUy4sQtSXSN6PH9gTswq3YykR3n2I/POomrS+25bzHF1WYzUCdOKlsNmLEpjHB0Y8hwD6IL3z9E5LGWiNRnJ5tbYQlJR2jWM2asKqkFIbhrID5cxMpGnnbImIOmfVei0aJz5GBE7fvvmclx+G9L5EXtrDYwC5+2SPC6RBYxXA2REOLD6exleaSFwaznSYxNjsDAJrU4FZYVy/IarVI7xdU41YbopvRARcZ+XCHqmkIWIQ+wfWAb/JMc6Jh6hRykqK3khy/Y3tz3OC6StLFcxl5I8ZBGm4X4K14PGkbh/sGxnB9gi3odkT5e6tPUsdE9Bk1VekL6ou4BWJmk+KGQL27mUtEz0fg4VwNXOd/JpaLDuzGLmx7EX3+Ph5HEp9TnajjT/LIUME2Ad8BDhCVOgAWvb1/NO4VLIUzOgP4oAvoReH/Eh/SNiX70ebBBVqTIzgWZS+HvI8Jrz2CMrJ0H8deD4JQdiPlXzMmOksnoJV6EladvoPSZEeo2ccCsaBFGWZBUw1J/TEmpgxGebXEt/iBeuC/AskB74jQyyO6mudhz9w4eoy6aNK4LlwWkeJep79T1IzugggZNR1G/mXCrI4b4eV3c+lckMs1sYTt+ORYgFHP33MWdx69gUs8cXaf5wWLLeoXveGCyXxE2rjyNG6XP+GeiIBplQXadncCqyYFIMvGGl81NHMm2Rti2CTxpu4qEaWOx8HoX+LrWwKH4X9EicA0i3PUc4MY68iJ4TbdA7WZOsCoSQXTbFT+vmYpeCmcBsPhOSUGdEZ5oey0eB1+4Y8GyQNgT75pBdrtxYwLBtjHquiwgO6v0AEWKWWN8+yH0QR84fPYIDsv3wueLnfD1WYnTN0rxzKQezLtOQ5RoFCzYiXMtzPx/QJ1vrOBU7ResPvIN5oiWwUNhv77kagKmjV2I61184VrjEOJ/bYHANRFw13MQYknmOsycs5ucGD0N7R+mIOfhK4jX7MMDq05o67mIHQvbtvd8/G7tjX5NClDw2A3zFrlrOaivCDt9fRT0rTE8JvqhaIvK2NZ1xvlp3piabYXgOT1w92AReniZYoVfAv5s93/419ZwOH2djhl9LqKvfzF2nW0NV7MiiHZdgdPCNSQ1RnbYFWnBjOxqYdJoQxIbYHCrJ6gfsBvhTl/rsZMl2OxjpV3PzpAdQnP34C4naDT2UMBGC+5FO33hw+uyEfvORPgVbeGxMUE9866YFkVs8cVa9CF6k+WwBc+0ntTI8PT6SOi6BHXio/G0vzcGkgmz4D8RONBqHVKX9yF2q4g9376/Bbas4fr9itcrP4stWK+gsx6LiG13KsDifvaIqkmOc7Asx4X0PBQ/vo/HzYnNHV6Omlules7Zrudyxh+Q84sSpsF7/u+w9u6HJgUFeOw2D4tYuyMEYXJPTIy7AYctz7QfQMk5MKybOQe7yYnT09o/RErOQ7wSr8G+B1bo1NYTi8gGCwdGplr9FdPIFWwcthYm4yyQtf8V7Ow+w3FRCr6YIsIyD+bYC1W9lPpBXWPQ5uz09UUT8bFDvwxzOH9jC8eBDXAnMQn33ZdhmdRHCfadnJ9hZUbcTElmGIYPSUSDwa3wpH4AdoeT3Xc8pkv9/ZH0lzsG93iKgpvNMD50OuuzcDEKg4evAGbEIYnoPP1RBIQg8F6Jj5AO0mcEIlDBFJXAVg37GEt8VGt8DPsJ2toHgIBSylNzf8q5YjDuvCtmm/p/X/BHIbxt/5loSU/kzpNHDNkWydEN2zxaYH6741wRfyV+ZTFDMMs0kU3n0B9FgCLw8SJAic/HKzvlnlPi83eR5Ec/jrJkX8x6EQmRlqMHqnaATLr8nzBOuUrObFJM73DbwQPqH2aPTaj4j5zVNGQl2apO7i4TfK5Pxb9C36AIUASqHgFKfKoe4yr/wvUjS/HvOYsRdY5cdO0zB4v/NRvO/6jyz1boA2X5MVgZFIYFRwph6RyKsOXTMNqQt25WqDf04SpDoCwNAV4FCEjgD6Sssg9pb7g8dx1Ge8egYdAKTO3dBLWe38HRVTOwGTOxY6W2tKbujpbE+CKk9kKIdNXZvYex0k9SBCgCFUeAEp+KY0bfoAhQBD4CBJgTgkue/kl6Wg21GzSBjvNKP4LR0C5SBCgChkKAEh9DIUnboQhQBCgCFAGKAEXgg0eAEp8PXkS0gxQBigBFgCJAEaAIGAoBSnwMhSRthyJAEaAIUAQoAhSBDx4BSnw+eBHRDlIEKAIUAYoARYAiYCgEKPExFJK0HYoARYAiQBGgCFAEPngEKPH54EVEO0gRoAhQBCgCFAGKgKEQoMTHUEjSdigCFAGKAEWAIkAR+OARoMTngxcR7SBFgCJAEaAIUAQoAoZCgBIfQyFJ26EIUAQoAhQBigBF4INHgBKfD15EtIMUAYoARYAiQBGgCBgKgf8H7rBHddaEnf0AAAAASUVORK5CYII=;fillColor=#F2CC8F;strokeColor=#E07A5F;fontColor=#393C56;rounded=0;" parent="1" vertex="1">
          <mxGeometry x="20" y="40" width="574" height="56" as="geometry" />
        </mxCell>
        <mxCell id="MhJ3nKYvm6UDi0r_VbmX-20" style="edgeStyle=orthogonalEdgeStyle;rounded=0;orthogonalLoop=1;jettySize=auto;html=1;exitX=0.5;exitY=1;exitDx=0;exitDy=0;labelBackgroundColor=none;strokeColor=#E07A5F;fontColor=default;" edge="1" parent="1" source="MhJ3nKYvm6UDi0r_VbmX-1" target="MhJ3nKYvm6UDi0r_VbmX-19">
          <mxGeometry relative="1" as="geometry" />
        </mxCell>
        <mxCell id="MhJ3nKYvm6UDi0r_VbmX-1" value="HUESPED" style="swimlane;fontStyle=0;childLayout=stackLayout;horizontal=1;startSize=26;horizontalStack=0;resizeParent=1;resizeParentMax=0;resizeLast=0;collapsible=1;marginBottom=0;align=center;fontSize=14;labelBackgroundColor=none;fillColor=#ffe6cc;strokeColor=#d79b00;rounded=0;" vertex="1" parent="1">
          <mxGeometry x="400" y="110" width="160" height="56" as="geometry" />
        </mxCell>
        <mxCell id="MhJ3nKYvm6UDi0r_VbmX-21" style="edgeStyle=orthogonalEdgeStyle;rounded=0;orthogonalLoop=1;jettySize=auto;html=1;exitX=0.5;exitY=1;exitDx=0;exitDy=0;entryX=0.5;entryY=0;entryDx=0;entryDy=0;labelBackgroundColor=none;strokeColor=#E07A5F;fontColor=default;" edge="1" parent="1" source="MhJ3nKYvm6UDi0r_VbmX-19" target="MhJ3nKYvm6UDi0r_VbmX-31">
          <mxGeometry relative="1" as="geometry">
            <mxPoint x="480" y="310" as="sourcePoint" />
            <mxPoint x="480" y="360" as="targetPoint" />
          </mxGeometry>
        </mxCell>
        <mxCell id="MhJ3nKYvm6UDi0r_VbmX-41" value="" style="edgeStyle=orthogonalEdgeStyle;rounded=0;orthogonalLoop=1;jettySize=auto;html=1;strokeColor=#CC6600;" edge="1" parent="1" source="MhJ3nKYvm6UDi0r_VbmX-19" target="MhJ3nKYvm6UDi0r_VbmX-40">
          <mxGeometry relative="1" as="geometry" />
        </mxCell>
        <mxCell id="MhJ3nKYvm6UDi0r_VbmX-47" value="" style="edgeStyle=orthogonalEdgeStyle;rounded=0;orthogonalLoop=1;jettySize=auto;html=1;strokeColor=#CC6600;" edge="1" parent="1" source="MhJ3nKYvm6UDi0r_VbmX-19" target="MhJ3nKYvm6UDi0r_VbmX-46">
          <mxGeometry relative="1" as="geometry" />
        </mxCell>
        <mxCell id="MhJ3nKYvm6UDi0r_VbmX-19" value="ALOJADO" style="shape=rhombus;double=1;perimeter=rhombusPerimeter;whiteSpace=wrap;html=1;align=center;labelBackgroundColor=none;fillColor=#ffe6cc;strokeColor=#d79b00;rounded=0;" vertex="1" parent="1">
          <mxGeometry x="420" y="230" width="120" height="60" as="geometry" />
        </mxCell>
        <mxCell id="MhJ3nKYvm6UDi0r_VbmX-22" value="TIPO_HABITACION" style="swimlane;fontStyle=0;childLayout=stackLayout;horizontal=1;startSize=26;horizontalStack=0;resizeParent=1;resizeParentMax=0;resizeLast=0;collapsible=1;marginBottom=0;align=center;fontSize=14;labelBackgroundColor=none;fillColor=#ffe6cc;strokeColor=#d79b00;rounded=0;" vertex="1" parent="1">
          <mxGeometry x="60" y="360" width="160" height="116" as="geometry" />
        </mxCell>
        <mxCell id="MhJ3nKYvm6UDi0r_VbmX-23" value="SINGLE" style="text;strokeColor=none;fillColor=none;spacingLeft=4;spacingRight=4;overflow=hidden;rotatable=0;points=[[0,0.5],[1,0.5]];portConstraint=eastwest;fontSize=12;whiteSpace=wrap;html=1;labelBackgroundColor=none;fontColor=#393C56;rounded=0;" vertex="1" parent="MhJ3nKYvm6UDi0r_VbmX-22">
          <mxGeometry y="26" width="160" height="30" as="geometry" />
        </mxCell>
        <mxCell id="MhJ3nKYvm6UDi0r_VbmX-24" value="DOBLE" style="text;strokeColor=none;fillColor=none;spacingLeft=4;spacingRight=4;overflow=hidden;rotatable=0;points=[[0,0.5],[1,0.5]];portConstraint=eastwest;fontSize=12;whiteSpace=wrap;html=1;labelBackgroundColor=none;fontColor=#393C56;rounded=0;glass=0;" vertex="1" parent="MhJ3nKYvm6UDi0r_VbmX-22">
          <mxGeometry y="56" width="160" height="30" as="geometry" />
        </mxCell>
        <mxCell id="MhJ3nKYvm6UDi0r_VbmX-25" value="SUITE" style="text;spacingLeft=4;spacingRight=4;overflow=hidden;rotatable=0;points=[[0,0.5],[1,0.5]];portConstraint=eastwest;fontSize=12;whiteSpace=wrap;html=1;labelBackgroundColor=none;rounded=0;" vertex="1" parent="MhJ3nKYvm6UDi0r_VbmX-22">
          <mxGeometry y="86" width="160" height="30" as="geometry" />
        </mxCell>
        <mxCell id="MhJ3nKYvm6UDi0r_VbmX-27" style="edgeStyle=orthogonalEdgeStyle;rounded=0;orthogonalLoop=1;jettySize=auto;html=1;entryX=0.5;entryY=0;entryDx=0;entryDy=0;labelBackgroundColor=none;strokeColor=#E07A5F;fontColor=default;" edge="1" parent="1" source="MhJ3nKYvm6UDi0r_VbmX-26" target="MhJ3nKYvm6UDi0r_VbmX-22">
          <mxGeometry relative="1" as="geometry" />
        </mxCell>
        <mxCell id="MhJ3nKYvm6UDi0r_VbmX-26" value="TIENE" style="shape=rhombus;double=1;perimeter=rhombusPerimeter;whiteSpace=wrap;html=1;align=center;labelBackgroundColor=none;fillColor=#ffe6cc;strokeColor=#d79b00;rounded=0;" vertex="1" parent="1">
          <mxGeometry x="80" y="230" width="120" height="60" as="geometry" />
        </mxCell>
        <mxCell id="MhJ3nKYvm6UDi0r_VbmX-28" value="" style="shape=image;verticalLabelPosition=bottom;labelBackgroundColor=default;verticalAlign=top;aspect=fixed;imageAspect=0;image=data:image/png,iVBORw0KGgoAAAANSUhEUgAAAj4AAABWCAYAAADPCpyyAAAgAElEQVR4Xuxde0CO5/v/7LdmjkNbTjnHlw1ZB6c0rJxWplTOKlREhDKHIqXJsVCSiKbSwYQaDSmyVkYx5ZBTJseXKWYOmW2/6zm8x973ed8Ohu19v/98p+e5n+v+XIf7uq/ruq/7nb/pB+1Pi4AWAS0CWgS0CGgR0CLwH0DgHa3j8x/gsnaKWgS0CGgR0CKgRUCLAIuA1vHRCoIWAS0CWgS0CGgR0CLwn0FA6/j8Z1itnagWAS0CWgS0CGgR0CKgdXy0MqBFQIuAFgEtAloEtAj8ZxDQOj7/GVZrJ6pFQIuAFgEtAloEtAi8OY7Pk1+Qm7YT36Zfwu0/30Orj9qh/yQPDGt3FWvn5sAqzB2dKsuvsgIczLiEx7iHwoc9EeBqWtkR3oDny1BwMAOXHgP3Ch+iZ4ArlM3iWsoShD2yx3InQ7xfHaqflKFMpzEaV2uQ6hDwz737pKwMOo0ba4xXZZ//Z2ZyDTm78nEbv6P4uh7Geluj1T/z4X/FV8oKDiKDUy487BmAt9JE/Cs48U9NQrU9rRn9foKyMh00/i8Y0H+KZa/gO5o7PuWXkTx3KsLvfobPWh9BbOxddJ+7DZvmmaNpNQkTZfvDbuhG1PdLQKSHJdrWowGfFCHafRI2n7mK4/83F2d/noculf1OeRluXUuDt9kEJA3bi79jbCo7whvwfDnKbl1DmrcZJiQNw96/Y6A4i/KCVTDvuRS1lucgc041HJ/HKXBsbou4ul7IuheMfm/A7GuChPKy+3haV0/OmXuc4ojmtnGo65WFe8HqZ1rZ52uCbs3GeIL7JWewcXhf+GNl1fREsw9V6Sll2FdpoFf0UnnZLVxL84bZhCQM2/s33koTUS1syL7cf4q6eppvAKr1udf+snJ7Wnn9Jr27D+jpMYuV+PcYKY7NYRtXF15Z96CBWZG+SmvV/ad1oad1mP4RCdHQ8SlHpmd3bO6fhUR7zs0RJY/Bxw57YRCSj5NzKu2SSCbHLdp+wNITyJ6nuGgXI9LiE7iXLq2GQT+HVZ92xXzDt9Xx4aA6t+pTdJ1vWNHxEaXAyWQ+Gm05jNVftNQ4eqFcukRIX7kY32IkAucPqrZD+49IsAYfyfS0QN7UTMyTFVNROlYu/hYYGYj5gzRw3Sv7vAZ01eQjKU7vwLbgzXN8lGJfkxOvibHOrcKnXefD8D/p+GTC0yIPUzOrsLGsCexf0xgV7Gll9ftGJCx8myFTwVMWpa8EZ1bmQxOzIpl+pics8qYiU85IvSZw/gOf1dDxSYNr7VFI/WwFjqTP4CMvzL9ZY2uHZThz1geGVQIrH/4dTBFQOg2H7mzEICXplfL06Wj+VVv8UJWID+cy/Ksdn7LMSHz30UQ4Gf4HclNVljEX1E35Wd7xqdJYb+5Lb6bjw+j3W4D9f9nxyfdHB5e6SKmyfX1zdUKIMpUbSQ2nU5Zoh+ZpznheQyHCfP8OcKmbgp+1jo+GHKjeYxo6PuewYZA11mAu9kscn+Pwbd0HQb/PREZpKCyqQgd5ubqWYSgbvQvPE+2VRyvKkzGm11UsFismUwt0NA+3ngF19E0xoE9byAYbWTKYFNf508i9XQdGZvWQ/Hl3hYgPhTvP/oiMolJ6WBedLfuiayVDjE9+ycXRvFt4hjrQNx2APmx+TvYn9I0n+CX3KPK4ScB0QB8uvaf4/q3zOJ17G3WMzFAv+XN0rxDxkRlHtzMs+3Zl0zlP7pfgwbOnuFVYimbWJmjEzhUw6N8LRkxo9sl9nP4pC7frdEVPw84QR2vl3zNDOwk9wvRKsdCVfkMDeZD73sCP8depHJx+1gJ9jD6BvgI/VOLN8Fr0GH8+uIIL7xrB/IMiHC1uADMGC9xE1tIRGBL0DHOz0jClLfBug6Y09ktKDz3As6e3UFjaDNZm0plCqXwx6ST555kUiejxn3hw5QLeNTJH819+QhbJW9eehugsF/4muNXKigZgVXiEaCoqwImzz9CC+FriXV8a8RFjIjM/Kb0n8KydA8zayc9p4MdP8GPOY7SXyKKA/CpgPsTgEauTpbpGMDM24FKK5aqwFzvoymVXUyTKy87iRxJqVoM7W6JvV2mqRhO8GTzOn84lHSCa6yXj8+6KER9NdFSAWlaOfsYD6ov/zodtoPvHu+jcz5Bkkvkpn7u8TA2BwSPGxpRCl/Tf2IDmR7hf1UhHFGwavXf2xwz88rQ2ntfVhwFZrUYWZmhxMwtLRwxB0LO5yEqbgrZ4Fw2a6qPxy/soefAMT28VorTZQHz85EfkPG4vY2tlZEOl/dKUk6zBltpjmfHU4lGZTzDfUGlPK+o3xyblPKxVFA3HfpOxp380rgczK18dfNhaD/XIrkpxsyYdY74pwuM/H+DKhXdhNMQAjxi7X6pL65IxDDhFwc2spRgxJAjP5mYhjTNSaKovlWeprNNaI5YF8dxV8FbGoilBSYEu8+b4Rd16QPb5yY85eNxedq2TlWMD9O9lxK4lYr5xH+ZlCrydZv+Nx0uFHkinplrHK8V6JQ9r6PgoeZPfJZU47sVV8no5ha7cj/O6z6D7yrOaebplFGX6fDssk2MwtuV9JLsZY5ooEIdTp0Ic8GDqhUbbpaNvwg749AaOr54I+xVZeDRKmuo6t7YHXB9GIC3AFLVOBWFAvxj02ZOFUA1jk2Vprvh8uyWSY8ai5f1kuBlPgyjwMFKnilN1IqS4msCjlGiLnYR2T9Mwu8cU1N12FcEWT5Hm+jm2WyYjZmxL3E92g/E0EQIPp2KqdBLwH22H9L4J2MFNAhPtVyDr0Shpqqu8AGst+iHeOhNHfbqgbKczjP30kZgbjHYXdmHXmumYt8cYjl566DUqFBP10+FiOAO1FszF39f0MD9oFBrtHYcO8/Ww+2IUrIiB13J2YeuiCVh2RMl3BqRgj19/ND6/FtZfHIBTzkFMbi9Ctr8dnApckUbz7Ayqy3K0QtRnezWqNWK+l7hyCnxSddDO1hmhfjMpcpiB2UNmQrRQWq8kiDdTwJ4SifmTNqLU1BrW0wejbNos7J2wHxcmP0V+yjqMXFWCsaEhsGsONPifJYYYPqSC4K1YNGEZjsjIRXnBWlj0i8eAlD3w698Y59da44sDTsg5+DnuKjzPFMWmRM7HpI0l0Dexhk+YL4Y1voVIRxts774D+VE2bKpQvaxUTmfYZeJyHFyH+OHJ4lRsHaWPWzs9MXxmHK514FNdLCbRWOS+Dnn8/Fh6oxfBfV0eRrEpHaYoOhErp/ggtbUZ3G1d0WDvZKx+LwRFJ+fgpZCOyIz/zNYFRvo2CFxqgdI1fWGWZIujp/3RNH+XCuxJ0ARk10IDQyJKcYWJRynpTCwmtSN9mt0DU+puw1VahJ5qoJvZ/qNhl94XCTt80BvHsXqiPVZkPeJxYRAuU6+jQmwr3oYhtkVYnEtp/Hq0sDE6HtgVR5jNm8DcjW6IefQMti5G0LcJxFKLUqzpa4Z91lRzV3IfVoFfoffNAHQfeAQe+SfBVRmUo2CtBfrFWyPzqA+6lO2Es7Ef9BNzEdz3NLw/3oCuxxIwqeX7eMLYO7MiLHoeAD0qik9ZNxKrSsYiNIQiGGiA/1kOgeHDHOxKXIkpPqlobeYOW9cG2Dt5Nd4LKaKyhkacbXuxHse32KPxuQD0HZoDzyNkD6pU8cDbSiXjjfhTNR5Jtkdx2r+3Zql9UbYae8rogoI9UMXDI0NxMyML2708kdB6Hr4l2QNawMSBNorXCLetizBh2RFelphC6hREL3LHume2cDHSh03gUliUrkFfsyTYHj0N/6b52JWfgnUjV6FkbChCOCMFyyGMk1yOy3HOGBJhgOgkP/TXu08budGYJJqHXMa+lGeq4G3FOlB5ceXoipw/CRtL9GFi7YMw32FofCsSjjbb0X1HPqJsmrLrAWefW8PM3RauDfZi8ur3EFJEcteIMLVzQoFrGmIndQYYZ9AqCp/tzcREHJXYms7TaZ372o7segE2uwzE1GwjLFm1BM5j62OvivWLsQFCOl4TuY0qOj6MYegE69Sh2FtIIGtQIqHMTlTa8SGjVtt6K7qxCkhnvFjnyw+m+58jyoq+IIqDTRtHPAi+imyP9vwnCxDUtTt8jcWOz0Ws7dEZXoUu2P+cFnx6ik0TXOAMviYnx9Jca8N6azdOAFgyyIHzM5WMVxxpgU/cXyD4ajZYMvjIlgFL91UuRdhN/D0uFednuh/PuUkgzqYNHB8E42q2BySzCOqK7r7GvONTjuO+XdAnYrBMipCLwO2fwTuRKU54x3YnRiTcwe4xzGpSRuPqwvEHmbSikhC/fAiYqe1qBcs4B8l3btDcWrvnwIUwX/2HEwxsHyG0NAUTxAtWcTjMDQJgnHEDoRYaiChL5z1su3sAk3g5YtObg3dhAj+GOrwl6cz6GwiziXiR+T3utfoS/TrS99nxC7DyrGKqSyEFSkbEs5Ul4hwO4c7GQWRQb1B9WWu454jlREnKlMVvAwb/cBmrzPm5svP3Rq1N55E5tT3pibCsVNrtKSc+d+mDiMFiOrmFL3lMbTgUydb4qKJXPrLByv4+RibW4uOCwzjzrimsjR9qoCP8+L8vQd4Vf5gwZBz3Res++zFDjLVS7DWQXUGngmorPnHHC4mOE990LRFmwOnTVTV4i+Js0MbxgVQ3mW8VBKFrd18YS2p8+DS+Sh0V5tpFcho7H5yOuwcm8XVyxDObYxiXMguP1ektr5O/L8nDFX8WVYK1NfoEtcYGsT0B1fW9Y4sCfsNYTrh36ROBwYfuYCNfL8C+s38GzgZdgom7Lg5fJieMFVHGDsxCgxRucVSdIuW+sW8aydnaj1Fw+AzepY2FfroifpxdcW24F49oA6yBxsuBV5EfCuOpwoOZm0bpOU3sKUOSvL6o5iFTCyVQPqHSpv6OJXlXwLFUwVYr8FMCEG9frHNLsIz2v+yvPB3Tm3+JouVkX1oFobYAb9XZFtbWbxiMHySyARSHm8PAuxY2nc8EmS/efu7DNJKttR8X4PCZd2Fq3Q7HnQxg+ygUpSkTJEEP9t0AY2TcYDJADJ20PnlK5bg43AJzP0ym9aiu8PrlkC2o45qs0ermXiXHR0QGrZsbEHFqC+xpF1HVH7eIHkGXZWdw1kdVlZDsqQMmJPkQOk0b4aXoAW5mL4DN+AQM4A0WN16pwiJXUUjZUNzLRmiq8xAiUQm+cTXDkt8rURjKhDQf6qBpo5cQPbiJ7AU2GJ8wgHdKeMfqD/nxZI9KMimehzpN0eilCA9uZmOBzXgkDOAdM6ZorrU7ShWiYPIOCW/sjUJRGG2DD1gGvMShmQZwIwPEnl5TsuhUMHJqHR9+AZCJirBh6bKXdFzzBedIXVfEjaNtM52i08gQsnRCoWibM7o7KZrIjiGIt9RobbDORYnEQvBSqanjwzvVXDREbGToaP9LOtrPpiFVORLxGCfnVPHPiU9YqaW9ktrDO9GKJ5AqLmCVcHwexcoZMNa+qtURVePLbESUYq+B7ApAwi5IXn/I67hsCwZBvHlntlRBZpXogaCOqmPZubXoYeKFCy0sMNzRHuOHWvFpIg3mrlYnmY/LOz6ZnrqwDDNCaGE0bDhjgJeHZsLArSH2lo7Bd52sEffCBEMmj8KIYVaw4VPi7Egqi+K5bzyKLUWKZFfD43d+Bvad+ArdeByuhA+E5UFXDR0RWfA0GE8VHjIbTUF2aGRPlei3Sh6qsAViIjTin+JmV56f4qE4h1e8roj/VUaGj3TFWgHeqhVTxvGJHyfPN55+UjAuC8Pq8CPEym5uyyjAoOuI64qZGtY2babTkY/Ihr4Ppm7JNFS8OS9G+LA1+F8yU8srrAdFRl8L67i6iWnw90o7PkyodPDEu/BPD61c1boyYpjCOtMAXB1e0fBKH5c5dUB1A98HOWNWQh24RqzBpMapGEQnmsSnMY55N0H/kBZqHZ8np6LhPmUxLvQIwZZFg1C8UBcOlTgRU37zewQ5z0JCHVdErJmExqmDYCKpvzkG7yb9EdJClSNFoe/vg+A8KwF1XCOwZlJjpA4ykdYgHfNGk/4haCHo+HCKEusgzjHLgFvnQ7RmEq014fjcoZB9CxccIgekYisAhQVeQoKqf1chjUodHz5Kp8Nh2EEQb6khih+nJGWqoeNzZ9sQtHA5BEeVJ3s0dXz46EuSI+vMDVVLuwZaKvOIKjqr5figIn/V64gGjpVS7DWQXQFIlOu49IUq6WaFxUqNjmrAsidF+xC+eQv27M5F4XU692wWhp9+bIWV6vRWo4VTfqFkeR/rgOjrwQq1llwthc7Nk4jfshZxyceQf+UWnn/kjt2FEWx6W53jQ0Isc8Sf5/lLX74mSAYIhboUDSCiRzQYTyM8BAVGA3uq3JlRzkPmcE9VIj6yJ3IV31fu+HB85eyIbAsT2X8fKsBbdTxgN9OKjg9TU1vbAUlim6/MPis6RwpOn8Rp4qPfTZisQ8f1GPrdlzjAhryEbcAvK6iHX4V1nPvIxU1WGLLivMzUPsGCg2lwr2QYqFKOD3P03GLaS4Qd8oExvwve4HIAn231Rnd1KCv9exkpHoXMYj+RCeMqPEjOUY/t/XAy1ILzIFd0Qex1Sq0waREZpQjQy8GdwkXo634Py86chTSApCBkZYlU6zEWBd65OEfRASZeJVF+yt8+utEKZoZChQbcSbQVXWJxncJ8HBnio+aUN8+5g8JFfeF+xQe5JcuohkD84/s+lKwmZ28FusRep50U+7b01FmAHnLuFGJRX3fcU4iCyUd8+Hd0N6Ekc6pMwzqZ3hI14fiA98w/U3BM2Z4T5chwaYuxed4K81SI1qiTC2WKxSvfoZkZKA1tqAZvWlPMnrIYqnd8CDen/bCOURKu5iMpn8ntcJnIh7gHkKaOD++0NWF4Y0qnHoVkhaFduAyxAnw8nYN3PafWEtJoq0aOD5uKohoPmcWMfU/R8dFIR25XPC2puEjJyaAYe2vsZ9pLCMmugMxwUd0r8JEN/9PzT9imKiVYrYlu3lM4iapIN7shE9BRmFHhqmoiGeO8ofUehFlx/OHqatagT9oPaOmlZu4aLfTyCyVnG3SxqYTSEzLdK1lMTi+H7SUXpM/gCnDKbzI1iQ64GVhCqdhW8o4PfdtpvzVi2JNF3DfkHZ9yer4hpUanKBxoqWovIA3G0wgPQYFhI+jC9rSi46Oah6WUwlewBSTnTojhHESN6BV2fM6tcsJ+6xhYfkvrXQCtd7LRFvF6wUSUV93FbAHeqjO9Sh0fPu3bZBMnH9wGWiEiz9uHPFpD5SLsfHmFIx/xYdKqiVSzNPbeCmwzPIync/dxpR/iOaiwAc93fymg41RErm5iGvxdc8eH6Rdjn4UJMbPRWYcZmU4N/RSGaXF9cITN853DthGjEVLfF6mxYyW1KWppoHFdTUYjrvlSnMieJylS5rS0AKss/NFi925ydCqmkMrp+Y6frSZD/hw2CW7QieDCukVLZGp82JzoYESIGxhWSGmIED20GSbfJUGKeYnAAzZIFDpSeJHC2J298IckIlNO/Yc64rPVFJJ8boMENx1EjPkOnayPwi33HOVmOePH5OFtDthhfUN3+TBeeTbmdfwMqynV9dwmAW46ERjzHdVPFS2RqfEpR/r05hgcIW1gqKxWQfwN1quuEceHRJRSCyYLWyBK7GzSXERxdpilsxXbmyxBK8s0+XkyPKHCyxknaF6aHLFn6SyWc3zZubnexnKmeFNHPd6JMR1UOz6sIm+CDbtQkgz3KIYvW8ulaHzOUV2LCRa2iJI4tGy9ld0s6GxNxJjGqhyfFTCTqa3g6i22YMD+i4gy+EatrDC0s3rTbBkyIriCaOEfR2dgj+/4WiTmaQojmxtghly6lg+Jt5RGc9gc/Iwf5aJaSh0fjXQE6h0fFdg3UlJnIye7QgAwBxxIx4+6STcupFxUQ3MAdusbwl0j3SzCEkm9DFM2wdSURUgaGFZIp1XQ0UTBRofMgmJyfAHu7B7D1z8wzrAdXmy/gmkXKtYYyc1do4VTIUKgrLZRjMm0Yph6t5fWYbH1YA2xw5ar/Stgagc32XCbF9LFHsW+XP2kUseHs2OK9URMbaXdLB1sTRxD9YwLYDU5H6NS92GOBvqvbrzGGuEhKDBcPaoae6qYyhbiob8JH9V9xm0Ib6/qgbVdT3J1phrRq2hLuM3SJhvOkUhx6oFiX7J97zH1bFSPFSXeJDPGNxpDm81Hk72F5Gp9hXcEeKvWkjAO8wozmTpRvv5uywDs5w+8KHV8SIbY2s80N+SeI7lhlzhuHRx4ZIbcOs7p1ja8GP0NbpB8iEMKguvXLJFqHT/A1xOqm5yav2vo+ORhaWdzLLlYXmG4Vj5ir+8YFrQcjHWYjUM3V1Su6y91ad45dxSmfNcaszcFYrLhh3RMeB+2rTqCrqviJKedROneGDQiFh3CDmLdp5exev1ltPprPVbcNIeZ3jCEJk2GfkEkxjhswYdfb4Ffx1vYFLQe6T8dRt7z3hhLJ1C8wnoi394K3iJnpFAYEd+vQPof+sjwS0Irm85oNzWZTl4J1S1Rkz/vQRgR2wFhB9fh08ursf5yK/y1fgVumptBb1gokibr43LybNh/VQy70BUUpkzB0q0NEZA4h05MpMN70AjEdgjDwXWf4vLq9bjc6i+sX3ET5mZ6GBaahMn6BYgc44AtH36NLX4dcWtTENan/4TDec/ReyydDvDaTK31n+BU+Gg4BNfHtKhZMH+Qicj9H8ErcipexE5ByNa9SDj+Gzp94YRxHjZokfINNu2ikzZUhurg4I75U4DNfmsQ8/1FfNB7LJ0iGQ+b2ykIj4/B9xdbYqCbE2Yv9oN1Kzq5tcoFTnHNsDjSA52LNmPRiaGIZxdpJiXgAyuPs5J5Lvbah07h+xGs4Qk5TrFy6FTEF/Dw8sCnN9bAecFdcrC3Yp454waowdtsBLpcooWIGjje7PQFnPr1hg1Lt1hUySEf8jkW1PNHuGkadjUj/gy6gKWB4YiP+R4XWw6Em9NsLPajqx7o9McqFyfENVtMHcTpjNrmRTgxNB4RxiT/yp5njdwKPLcYDsc5s2BfJx2z3OLQfnUy1tl3pGiiJrJyk0uN3jeVFMur1WlqtuZt7YGLoyhVOrwuMleHYCedosoq6oQvnMbBg5+/5GTEdySnt8IQsikfWfuP4Dnxe8ai8VKZ0GF0oxsspjByxW04IoV0xM4VDTM2c/h9wOnVeJvbdEIoBlsOX4XBQDc4zV4MP+vfKmI/mdnyqZZdDdZKOtWWjNn2X6HYLhQrmHK2pVvRMCCRFtqHGulmQeQYOGz5EF9v8UPHW5sQtD4dPx3OY3GxdfHC5i/L1Ouo+NSBEmaxi2aoDkZ6roTvGDp1l7gQQaLpiA9mmoKqnnvjw0sRGB5fQSfXxWzB4asGnE5OMUF+yNfYkHAcvzHyPs6DlV3dU+EY7RCM+tOiMMv8ATIj9+Mjr0hMveaGd9yoWJROha5ZyJwQXY65CZ9ibSJ/EvYcpbM/X4B6/uEwTduFZoz9KY3ClJWbsItOfekwmHSzwJTN4qtyeJ13Po4h4Wtg9+FpsgUlGL5hBVv6cINSxh0pZUynH/jDGuqkWfV4nfM0wENO11V8i5FnIXs63ga3U+TtwejavrBWyUOKZWR6o8/wY7CPng5R2FmMSw9GRxn+tWR1wAUm+Vt5m/oBZ7vZb61j7dVVA6nt+Y1w+3xBPfiHmyJtVzN2LWM1heVrJJotjoRH5yKEz1yOB2502oo5QczYTiHeqttCsY7Pc1gMd8ScWfaokz4LbnHtsTp5HezpYEhe1BSs3EQnhPN1WNq7WUzBZvGdLkzZiY8VPM7aIZRVwsXw2tcJ4fuDFUpgmAzJINyLkBbec2QJ2wDVOl71mmJZODR0fNQJbw39ne8vc7WU+hV07QnDzsrCWnzPBXEti9JP830K6HhmU/261I9CRFcWMP1bpKBxvQbo5CDTt6IqWPI9G+p82FrSB6cCKeJ+J0po5XrYiPsZKMdPlsa61JNFRC3NZfs7sG8JfKOGuMLLKdejguuDowgYz5Oq5PklodQt6Mf0vGB5pqR9viZ4q5wwLw+1+PonNcBwvOH7TwjJBuv4cMXNHk0E+KkB7QVBY3DAJrFSTRZlZYiq/vEASuYnKx8fvKCeR3Q9gYYyX20d4QSU62WiDPtqya64F4kSHdIAb7HekAGAfl2KXivBRRMdVSZKkvQo3w9Hqc5Ua+6qBFgJJoTFfehBT4fvo6LMbvK01BKyZRU+KaDzTKqaIt+JlWruVw0boqGh08ie8mNpxENWzl5UfQ1RoJujrxbXE0jubypkXRPeCmAjTXV5oAnTp0xwTVUxEK9rytcF5h1yfIZ+hy9VRWoE9UBAxzXkuarH3izHp5qT0b7+FiKgtLj5LZmHjONTvYarFPq2+xaWu2smjPuWoKcl81+KQBn1Wfrq2WpEsW00tL83FQGlNT41QGxZZjDmJwJjVnqjb9502F+ai32S9jI18IEaGELr+NQAiNohqoYA02H3W39HTNoOOEfHwn+ksg7WVRv7Vb/FdlMN9oTVshyY+aYh1Lvy3b/FNBZHjkYQpeCYpmHanxaBtxoBpqmefR6ckxXqNd/qSf3biOc6ZQd7WmFZjhl800LhLdPioLqzZdOd/gbYc2g4DvkXkH1/82RB6/hUl8va96uMAJdKkL4umDas8ldezYvybdnFV2FUJWda1RMxr2Ze2lG1CFQLAXH6pSaO3lSLEO3LqhEQp5DET2iQ1q8UnPxVFnQ1h/LrmCo12Ct5WOv4vBJYtYNqEdAioEVAi4AWAS0CbyICWsfnTeSKliYtAloEtAhoEdAioEXglSCgdXxeCazaQbUIaBHQIqBFQIuAFoE3EQGt4/MmckVLkxYBLQJaBLQIaBHQIvBKENA6PnKwlqHgYAYuUX+fe4UP0TNA3LSrGtjLXqBYjWFe+auvgU7Zi1srzq8Mx0bhHwYAACAASURBVCMDkdV+PuZr2gzxlYP05nygvKwMLxs3Vtm+vex4JAKz2mP+fKZpnvanHgHx5bv/RFXuE7roV4cu+lVRDF92HJGBWWg/f37170NUOvFryKHmhLeV/k0XBn2M8ImyXlrqQaz8E2UFOJhxifp33UPhw54IEDfIq/xI/7E3xDz8HcXX9TDWmxqw/scQqM503wDHR+Z+qerMpEbeZardryHN2wwTkqTXQ1R56McpcGxui7i6Xsi6F1y5btZV/qiaF5WdungNdD5OcURz2zjU9crCveB+FYgWUX+fbqMzMTwp/40/5i29z+tVMU1h3DMrYdhrAS7134rLBydXNHjM9TLdRiNzeBLyozS5BuMfovsN/syZlYboteAS+m+9jIOTpUsIdwdYzdwPxE3/MVIcm8M2ri68su6houiLqJl5N4zOHI6k/Ci8mg4HXLPABz/Mg9mEJNSfcwDZsz/myHtwBfs2z4YPddFflpoED+5Sxlf3YxrYXUuDt9kEJImvFXp1X/sXjczw8Aw2Du8Lf+beLrrMmbuNTfvTBIHX7/jcoPtIfJshs1JdPjWZWtWfkb8QtOrjsNctrFyMbzESgW/Izpu55NG3WabCXUOvgU66dmHl4m+BkYEVIjrMZbjmVhmYmLr71Rve6rCXfzfT0wJ5UzMr1XW5Wp+lFvwxCzfg509nYLkTta6XHYy5387cChkTU7Hbw7hGLvSrFq1vycvlBTFYuOFnfDpjOZwk92Yw9535olmm/O3Y1Z2SKH0lONFXjOiUo2CVOawyJiJ1twd/EXR1vybwvqpbtqnbNkNHTz9gqaZ37lWLTIHbzqs17r//5YqXE//751wTM3ztjk9Zoh2apznj+b/S8akJFtXkGNxtuWnOzwUvWazJL1ZlrHMJ4bht4fGKwvxVoUjoHeYuGhfUTfn5n3N8hMg5l4Dw2xbw0KYHq89o9hbqNDg/r1nHRzVh55AQfhsWHv9QelKl48NQyMi1KQKwROaC0+pDqnwEreNTVWS1jk/VkHutjs+Tomg49puMPf2jcT3YgmYgf+8O2x03owil9O/6RmYwNpC5w4lCpGd/zMAvT2vjeV19GOAZGlmYoR2DAxM+/a0W9PU0DdMyKa7zOJ17G3XoO/WSP0f3+YbY+7eMweO/V1RKVOqbYkCftmp301yDProHqLAUzayJNv5ek6e3ClHazBomjbj5waA/ehlx4XT5pn48Hvx7LIvF92EJ0MN0RD768wP8jXfwYRtd/PFuZ/QzrIWiaEf0m7wH/aOv00WsDNzc3U4V6BTLEoPj+dPIvV0HRmaG0L31E77dnY33hk3FJGOqHJGhAbqdYamk+6eUh6BHLNG3K8ND/l4eun+ssLQZrM1YrrE/lTzXALuqqQBhzuCVd4skSBedLbkOzPINCrkGX+x9aY//5D7D8OGjJzi+dASGBD3D3Kw0TGmr2MiQb+R1i7o0yuAjj7cJGlEXVU4MesFIVmaf/ILcoz/jwd/AOx+2ge4f76JzP7o5m7n76s8HuHLhXRgNMZTceCzLjzr6RjAzNuDvoVPA26QRqztFpDX9exmpvmuuAqBcx9cMTglIJoxhUImL7qQ4kz6bDkCftmL9lBlXhge8QNB0H+NPSsFceNcI5s1/wU9ZpKfK7vJj8coDA7cqHVUqj+L7gvhvDDGkqxbo4uRox36YvKc/oq8Hg1MX6b18yuVaHjCl81WQY6noq8ZWY3mprAIIOj50n6lva/QJ+h0zM0oRygDA21ZWdlgRqIaMydmWekj+vDvmG+7F3zIbYDlbICcvKiYqh+1AfPzXKeScfoYWSmqWVPNP3NyP1y/zD1B0tBgNzKSd2VXLsSYMkLEJpENyDf40sKfM5Z73iwpw4izNi+xFiXd92BbIp7qqRJ9YB2RsstgGPrhyAs/aOcCsXeXsiOD6rQYqZTZZVv6UrvuawM8/8/ocH7aoLQvbvTyR0Hoevp3dg0hqQbd0M85LOS7HOWNIhAGik/zQX+8+spaOxiTRPOQyNQtMW/SPN6DrsQRMaknL6KkgDDArwiJ+Z5bmWhvWW+vKK6wqUOhGbv/Rdkjvm4AdPsztxasxkW4yzno0Sur4UM2Eq4kHXqw/ji32jXEuoC+G5njiCNVXCOVVr+XswtZFE7DsCD/WtRy68XgNps/bA2NHL+j1GoXQifpIdzHE5BcbcXX3GDyld3atmY55e15ieNA+rFtIeFw7DF+XUQi+bYeQ9Z4Y++k1fKWCnjrULty2aDFyKVRdj27QTXYzRmDXIzgy9CYysrbDyzMBred9Cw5uuqmdLG8FOhms2Dm74feVJxDW9wS8zZ1watIPSO2wCsOvzMTZwA+xtocrHkakIcC0Fk4FDUC/mD7YkxUqidRIbgc/HItJ7Z4ijT46pe42XA1uh/xdW7FowjIcGSU2dmp4rgF2lS/ipZD+Wgv0i7dG5lEfdCnbCWdjP+gn5mLRRyeQsjsE8wIO4X7fIJz5biFaXfTF532C8etnHvDxdYZZg0u4Qjctj1xVgrGhIRQdoEtv/2cJduGklNNai36It87EUZ8uKNvpDGM/fSTmBqPdBTGPjeHopYdeo0IxUT8dLoaT8WLjVeweQzMppluzbYuwOJfSfvXoButkNxgHdsWRn93w58EEhHh4YHt9qcErvxwH5yERMIhOgl9/PdzPWorRk0SYl8vUiTCFkLuwZvo87DF2hJdeL4wKnQj9dBcYTn6BjVd3g/mk4K/8MuKchyDCIBpJfv2hdz8LS0dPgmhergY1WGKcByBlD+lz4/NYa/0FDjjlUD1Ne5xb2wOuDyOQFmCKWowu94tBnz1ZCGWiVoydSInE/EkbUaJvAmufMPgOa4xbkY6w2d4dO8R1MGVpcP18OyyTYzC25X1W7qeJAnE4lb+FnBVpV5h4lCJQUR4XfYSjCSHw8NiO+ivP4ud5LdhDDlnbveCZ0Brzvp0NTl0Y40//59xa9HB9iIi0AJjWOoWgAf0Q02cPskLFkRqB+X5+F7u2LsKEZUcwau/fXORVDbaMfnI2QUBeKmH0JY+qcXy4lP8ZdGcx6UJk1oyMibL9MdouHX0TdoAzuRNhvyILjyS2QMyrF1h/fAvsG59DQN+hyPE8QvIiYHEZG5G4ElN8UqHTzhbOoX6YaQhkzB6CmaKFyMmcAzaLKcg/5oBLCiLnT8LGUlNYW0/H4LJpmLV3AvY/j0KfNFd8vt0SyTFj0fJ+MtyMp0EUeBipzG3p6nggtgkDUrCHdKjx+bWw/uIAnHIOYnL7c2rtKYO/6xA/PFmciq2j9HFrpyeGz4zDtQ5SO1BWVfpYPYvGIvd1yOP5UFZwECnRi+C+Lo+XVU3tiBpbLmxoVNrk4L6nBdd9dfDL/v31OT4sFSpCnKxCboB1bgmWkWJwnl46pjf/EkXLzyOzVRBqu+vi8GVaFFhpK0OczSw0SOEiNGwO/fv6cJrvAXNBgy6i99rA8UEwrmZ7oD3/qYKgrujua8w7PkqeKYuDja4rGu59RIZLWNwr1gtR4ek7ttg5IgF3yNFhrvEri7OBrmNDqaNVHA5zA280SbhDiyB30d9xXwscsMuEv4kQPSdh9LUhDk6/iwOT+Ikf94XNsXFIYW7R5A2dodjgykiCIp3cbm+AhCb2vyNskVEayu5+cZGMf2cvFLrsx/MoK/oHbl4XQopwcg5FJYqpdusTd7wIvops9oK6THjqWiLMIARFJ+egkyLv1fF8KjOGBthVQvrLCZsufSIw+NAdbBzE8ZGd5/4ZfLEgX+uw5mMkFcagd7YTnC7Oxm4fmdoZ9pLVAqykG9qlF5WW0zhdCK/BOHRnI7ihj8O3dR/sn8EtIlTBSu/txAgJjxkZ1oVjQ84RvEjOQOeD03H3wCT+VBa9b3MM41K4Ikb5EDenRxusc1EiVRikT2+OL4uW43zmVFa22Xd2jkDCHXJ0OMEjOXYkOeYXYAHsWPnYYI3ckmWQquR0NP+yCMvPZ4Jlj4pfeaYnWlnGwUGMM1PX19odOazsGJDB7wyvQhd2YWEliaHzglhOmEH5+Q3+AZfJoec4VYxwcwN419rEzY8Mfm3rregmlj9Wnvxguv85WPFUK4+cbBXwizz7VXbhV4j8sqJPvPEqhIt4bJaXFxBSdBKM6AvPl4hR0EONsFUjL5UQe+mjlXJ8UDMyJiKZa+OIBxK7wJBTgKCu3eFrzG+ClDzD2khXspGPyMYLmlyOj/e2ydhAdu0YjF0TMnCDQle/qOGflPf1seFqNia+yMT391rhy34dkcFuqrtJeM3yzs9UIrsCWoBMz1awjHOQ2ASm3rK1ew4nRwZq7Gk56X+XPogYfAh3Ng7idaAcyWNqw6FI6vhwm/6q0CfVM7nIm5I1Q60d0ciWK0dK0CYHXYKJwLpfGR14Ix0fxUWXmxBTaNga7qXE5CNdsbaTNeJemGDI5FEYMcwKNlW5ZI03wKUyxq6CweOfOT9jH0581Y3H9grCB1rioCu/iKlbMOSMZ0UDyy2CUsPJOHJMLc5YOgnGOmSM4tpfwtx99P/V0LPjvYkw8bqAFhbD4Wg/HkOtZFIKlXB8Mj11SUknSBwd1hlc2ltGwbmQ8MtGTaHzUARRyTdwNVtCESIOE25x+EPeIZA7Mi/v9KrlOXtqQRPsNBd/do5hRggtjIbNB9x7Lw/NhIGbjBNKBerJYz7G+J9bwqjnEuyNsZc/Hq7U8eGdPKNQFEbbgBv6JQ7NNIAb79hwPJd3mOQWfGZXauKFCy0sMNzRHuOHWsmlV+UcH3LgWvehSImCA8MZ1lIJDyrWAyg4qyqh45y2oAHyqQio0B/FYThjLBNBpQdkj+OzIfWXjdBU5yFEohJ842qGJb/Lhu85WYkfJ69vnGMCfn5MGP4hdJo2wkvRA9zMXgCb8QkSTNTLo+aOD5tKF71Eo6Y6eCgSoeQbV5gt+V2Cs7r5yjs+GmKrTl40F/tKOz6mjDPZJ6ZGZExRJjli5G0B98x5zNh3AlKTG46BlgfhKrfBUDZpjo+0Y5OrY+QWa0fOcSL7KsQ/yRqg4OizX2PSaQ910LTRS4ge3ET2AhuMT5BuEFWzgSKSta0pUiOrQ7ItFITtKXlN0LUMwzBl85JNdVWZvop84FjDbCDmQ3azrM6OaGbLlSMlaJNLx+C7mlj36dNvpOPDAhtLQipbY0PEyv770JsnEb9lLeKSjyH/yi08/8gduwsjYMUFSDT7HaOoSv8QtBByfHjGv/TNQhpTxCHze7dBU+irqXFQFfGR3VkqWwTL02k3Td69Z94VzLpsB/sHa5DJRE7U0vMSRfvCsXnLHuzOLcR1Oo1rFvYTfpxRuYhPeUEQenXfRlG3c1hmdBFBvXpiz7gTyJ4nDuk+walod0xZfAE9QrZg0aBiLNR1kOyYj3k3Qf+QFgqREFn05I2dJjy3Uen4KEZcNGM/900HSQ2H9C35WjMUrYHpx1/hoU8uzlFERW7DqdTx4YxvrIO4dk2GHr6uSqXjI2PEnhTtQ/jmLdizOxeFHCPx048zKkZ8WBpi4agYuVH4d1UGS04WlULHz8dRwfHh+RFb4d9lB7mDbUNawOVQRX0WP/XkVDTcpyzGhR4h2LJoEIoX6sJBrm5BueNTnjwGtR2SuHlTKvf7IGfMSqgD14g1mNQ4FYNMpAZbvTxWwvF5cgrR7lOw+EIPhGxZhEHFC6HrIJZB9fOVX0w0xFaV46NQ36GZ5PNPCUZ8yklEG5J+tMQSskH+N2tGxpTzQd4WcDbzJXz5ujnpnDS5TFO548NF8XU4e9RWiH/c11ga4sdVOCZefvN7BDnPQkIdV0SsmYTGqYNgoiQqWIEPdyh13cIFh1TqirA9vUMlDC1cDlXQcUWdrjJ93KzZDYZGER85uZPXHc1suXJJVWeTdWpi3X/jHB9SbifEYNbpDjAN6ILY0hRMkDgyPFOYngWr7mL2JRekM4s5/cpvMrlWB9wMLEHm1Eq0ceJ3rPeWncFZH0oGS+yBTIi7nJja0Bb7pmSgVFLhx3y0DPef1oXeK3J8uNTeYCSO2Qa/ou/QLJlPTwjSQzU94zej9Z4wWLGrMykTpavM1vRBGpOiUvDeU5ycgBguPVjBQaMdhvm+3ljYoQSHf/uAdlvDMbBHS8miz57GG1sAb8Yx6s18TCr8R4Y+wsmMRRjidQU+sulKhiJJXxR5Jcv3V8NzwYhP1Rwfbs662FRCqRoZsZHv3UJ9VVxdcG6wGfY4rcPHSYW0k5TJn8otSDQnp/2wjrHGfsaA6G5CCaVhZLrCgJs+FfWqWch0NllhQ+s9COMYydexraEaA67QVM7g5fujg2kAusSWIkWqMDxPxRERxfQYM6qSCJpSe8Sf8OkSi9KUCdJiajWpEvFQ3C7uMwV95m+l1zmIsc3HosBb6lRK5nZkKB7daAUzw9tKIz7cYtaE5Z/pVpKfFWQzrpPNYNgjI+sBejm4U7gIfd2F5FGd40N/Z9WlHxeNLfBG7jlK+7GiL47eHcHQRzdwLXEAbFXNV4+K++X0UENs/2nHp4zma0Ap+c9icZ143rSGZIyL5tzDsjNnITW58ragnOba0HYfpsgWVbMm9z6e1tXjC/aVL5ximZaP+PApIYrmZpQG4J4a/rWigxy3lTo+HK9WkB6wmMjZzQCQmMFM5qCGPIV8FJjwlNMhfh3ROThW0J7euJaIAbZhGLzrORLtpVsvecenOvSpcHyURJPVbaA0s+XK+Sdok08vh21NrPuv3/HhBfIZJwy3V/XA2q4nEdWZqQ+hmp2o62TI+UVGFI2hzeajyV5aePAV3vFuL3PMkhmnIXbYcjUx57aNwOiQ+vBNjcVYgdoDJqWU5toJ1kVLZGp8ytnaiMER4gaGyuo1qI4ozg6zdLaSYyIcYqpqxIcRC1aAVtyE3uTvcEMmr1uxfkRMz1cwXvE5ji+Q1gaBIjdd7V5g+xV/mJQnY0xtBzxjF0haTHqsRdeTXF1FBTrJ+OgmDMGpreMhOXwjI6sVwvksfybjLkXPYl4G4sDnTrhkY42jbjJREiZPbXMAdgeIFsXdBVuDIcBz1tlQleqScXzKMrHAajLyR6Vi3xw1BYfK6g3kaGQcx8H4uvVu7CY5LCaj/cmsx/K9TRh8u2+CDevgEX09iuFLNUyNqCahjeMDBFONAFvixBhupt7qgB0O+JuodXxopYfJ8QWSOjCuDsIOL7bT7pt9naJVkl1XMaWBP8GsBlESg8z0kIoe2gzzm+xFIdUMsejJvVMZx4cpkWHm3gBRYseCXhdFD0Wz+U2wl+qfBBvtsWm7hWghp89xsJulg61Oh9GcanMkhb483ZPv0gYn5iUCD9ggcR5XX7LCTKa+ga952DJgPy5SndA3TJ3QHzLF3tnz0PGz1ZTqeg6bBDfoRHBhctXyWFG2uIjSM85hu70KPdZ2BalLhZQFi8PkuxRNiMHLwAOwWfweJqqabyLV9SlsQDTCVhPH59w2jBgdgvq+qYgVNnycQKpyXJli67F94XqeMJMcVqghGWOK0IkPRUvEtX+MYnCbvAhxA0Ol9SxU22g3CzpbE7n6NJU/jo/FG2TGZ/XcFbeX51P94XX1/OMErmLEh69r/EOSISinCHhHfLaaUl3PbZDgpoNEgbYsTBG/ycIW8jrEryNOh5vLp4MV7anNYrw30QSBPb6TqfHh6txmiNPC1aRPUk7SUhrZLQ43h8GMH+UiTWrtiEa2XAUDhWzytGKYCqz7QlKh+LfXnOoi1yPTG32GH4N99HSIws5iXDodHSWH9smpcIx2iESzxZHw6FyE8JnL8cBtFxKZ6nnGCLhlw4JOX61ZyBwLWI65CZ9ibSJ3guPYgpYYvA6YfegmVlRsCiyPAVXaR45xwJYPv8YWv464tSkI69N/wuG85+g91hYuXpvh2o3C6D5WcD4+BOFr7PDh6XhElAzHhhVC/TZuYP/SQITHx+D7iy0x0M0Js21aIGXHVuxNOI7fOn0Bp3EesGmRgm820amNfNCJNge4z6fvmfIkskXOazGQCTXTYif50Wkt5fS0wPZPTRCqMxKeK30xRv8WEhcGQTQ9HsFsX5cyZHr3wfBj9oieLkLY2XFID+6Iw4p0LvaDtW4GZhoMRPRfbfBRrYe4e+sRyuu1g61fDDbNM0ejgkjYW3lD5JwCykri+xXp+EM/A35JrWDTuR2mJgejb0kyZtt/hWK7UKygsFLK0q1oGJCIOY0PY2lgOOJjvsfFlgPh5jQbi/2soSvE87woTAnRALumFFLuSCFlSItlhRSCk7Ng1J8WhVnmD5AZuR8feUXC5MRMBG7aiYP5z9E2IBtFVMCYF9YHVp7HcV+vN8bausBrM3OlyTlK5XyOBfX8EW6ahl3NQpFEJ5XYaFv4aDgE18e0qFkwf5CJyP0fwStyKl7ETkHI1r1IOP4bOn3hhHEeNmiR8g020cmrfHIJHRzcMbLDBjiF6mCk50r4jqETHIkLESSajvjgxvhuSgi27k3A8Zfcs/MZOij9Ej7aAZHNFiPSozOKwmdi+QM3OuXC6EQeosTv/NYJXziNgwcji99solOGrODBwX0+NgteF8DPJ7IZFkd6oHNROGYufwC3XYmYKmn4pxppUfYquDjFSfR586ITGBofAZtGpH/2VvAWOSOFEySk/6GPDL8ktLLpjHZTk6n1whXO8XnO1DvNwSz7Okif5Ya49quRvM4eHUnnReneGDQiFh3CDmLdp5exev1ltPprPVbcNIeZ3jCEJk2G/mUV8vgiViJbL2WxICfau89wHLOPxnRRGM6OS2fbQBRE2sPKWwTnFEov4nusSP8D+hl+SGplg87tpiKZHnqoYr7GeUsRGB6PmO8vouVANzjNXgw/a11OVlRgmxelXl5YGTi2AC05w4ebgoaPkYfNOHHzGEsHCSGc+rXkmPf7VeTkPIXRV18jcKKl/KanhmSsnGzHGIct+PDrLfDreAubgtYj/afDyHsu1atulFLysXLG8SHhWGP3IU6TrJQM34AVavtTcY5PDvHxCw8veHx6A2ucF+DuhBhsJbvVlGnOKMg/O7g2zEB4zBYcvsnoSj/0JqfDz5qJ21KjV+9BGBHbAWEH1+HTy6ux/nIr/LV+BW6am0FvmFj3VemBCNmrXOAUJ9ahzVh0YijiI2w0sqcWD9Phbe2Bi6MisGZ4XWSuDsHO/F3IKuJ1evFU1FpXHfpkTj5+R/O7FYaQTfnI2n8Ez3uPxYxF48lO7eBsjxo7Irh+q/FQVNnkqdfcBNf9t8rxYYll+y+8YHulyGeOxD0VFGouxNcu6DBFatTjQ1w3UZmZKzzL9Syg48jifi2UxmqqeF8N3ydCk9qeapAi6+FQAfFvqKWvomV+BXr49AGF01+yPYSU58TZviAvqA+Nqvt4aMflb+SAYtohyaZ1nhRtwTizmWgYLT7NxvMHAmORoWGKoB//qcBDlQBV9nllAzERQNrlJ2raeK663+Tfr8X1RZL7iftjVFJGJWH9l4xuPKO2QerryZjvintvyPacqRlZ5Eep4ny4t/k+IOJeVLKSLqN/FbPHMjU+Hk1YPJTPjx9fEOvK8pob84Ui/jwOZDAE6vxUz1cpT6qFbY1yWXCwmpExWdtRF0/JRjytWxFLroeRJrU9YpKlNT5b+kltegWZ0oh/KmDg7W6VdUzlOqKJPRX3euPsKQknHkDB7lSXPlk5/OAFrbFPUbfC2qyJvFVW12THVPJuDa77rz3iowl82mf+YQTYkOlPWPA8ETLpZCKCO3K9zaqStVT/MPmg+gTXr55hdRTXLkD7e9sRUF7c/LbPSkv/q0BAeXHzq/iSdsy3FwGt4/P28u4VUk4hWX87OOXaYAulNSyZIh/qipsRPgPzj32JbcnSpnCvkIgqDl1O6Tx75DknY54GKZgqfkT72j+FANvNNhieVsuQY+aLtFBvvvv3P0WA9jtvDQJM5+5v/eE4aTvgHI1Y/5Ey3cHfmlloCf0HENA6Pv8AyG/rJ5iQ9vnTubhK7enpzgUYKGn9/ubNjdIL4pNTbx5xWooqi4A47C5+T0marLJDap//lyIge7UPM8VKppf/pahop6UEAa3joxULLQJaBLQIaBHQIqBF4D+DgNbx+c+wWjtRLQJaBLQIaBHQIqBFQOv4aGVAi4AWAS0CWgS0CGgR+M8goHV8/jOs1k5Ui4AWAS0CWgS0CGgReI2OD99EC7/jalk/bPzWnW7s1v60CLwlCDwpQm5BbRj2aQuFzj1vyQTebDJv7KdGfyk3qaNaIep75CJksGb0Ms3+Np+Qf7alpAGdmjGYxqBBrlh/vRl0zj7Cl9s0a86oljKm+SZDFDUHLOu3Ed+6ay2dWsy0D7x5CNzYT41nU3CTGjkW1vdArqZKqWwmNTlWFZB6jY4PQy3XVp9tT8/exaT9KUWgrAA57J1F2q40b4aEPEKCXSOM2/M+XPY/RxRz54f2V+MIlEuunZC/aVv9h8pxKsAEJv7nMFrhbiOhd9lrW1LdcJUuOp3WcTruBPyEgvnd1X9OkydkriD4ed5/2dKVoSDnBpj7sLTWTBPBecOeKc/GvI6fYfUAxQuLq0BnTY5Vyc+/ZsdH2f1BlZzBf+HxNFf0ODsHJ//TBvPNYnT55WP47gzQ/ct+7JUJ2t8rQEDhTqvKfIG7e+5MxRvrVQ5yEWvpvq/APgqXEVfmo4LPanohbI198A0diO7q6nEWc05qN7pvKIPUkKXkBvcqT6Qmx6ocEVrHp3J4vYanuUtTv2r7A/7bO8XXAL32k68XgX/U8XnV3aG1jg8jTOXp09H8q7b4QRvhf726VeWv16SzUpNjVW5Cb6Tj86RoH8LjcvC8FlDro4GwdbZAZ3EhBdVW7IvejYs6ungpeoYGdf5Cm7HeYO+QU/G7lkOXP97+HcU5L9HPqztuxCcg/UkH2Ay1wgC+RqOs4CAyLj3GvcLzaDN+FP7eH41TjRwweVwPtGR29JT/Pxm/DTt/j787QQAAIABJREFUAer+XwN0tRqJ4T1a4v1rOXTB6G3Jl1vQ5Xhm7a4hhy5/5P61Af5nOQSGdaXvv/dnbZhN8MAwyaSoMTIz5+gsPKn3Hv6sbYYJHsPQGUy35KkYO/8Qao8NRYhdcxruf7AcIg4Tl+PmyXhs44hCg65WGDmcp5cl+SS+TdyH3+s3R8nDv9DyWS30DGAu1lTzYzAOj0PO83fxB9pi1ORx6MGCwNEZvfsidHRfQvSsAerQJaZjva2hEn5K0x3MuITH9wpxvo0zZrY5jx2pObirYwSbccMl4/KDq/yu+NsVMOLlgplr/LadhJgMfuzfnqBoXzR2X9SB7ksRnjWog7/ajKXL/hiKmb9tRtLJx/jr6RPU6z8JHsM68zU7PA9/L0bOy37w6n4F23bdhvEk4tv7Z1ie/16cg5cWIdJLZdnxwhGX8xy16H8fDbSFs4V4PHWgc7zcEn8Z737wB9B2lFT2eF5y86uL/2vQFVYjxdjJ0mmBwIF/YM+u73DmaUt8McoZFjIyxs1XDX2snG9B/OV3wZExGeMYOecYJHn/Xdm/8TrA4tHPC92vbMOu28aYxMiwugIoAVkT3x5uuLeyqS7m4nFlER8ZfXnvT9Q2m8Dxm5XRLGz38kS2OadnDf5niSGUWlYtV+r4yehKJr79/gdc+rM5Bg5rhG8+Ho0Cyc3eAngKDK1op+ocTkDilXowG2YFm75dubsO5XRuPEb9vR/RpxrBQaLHquyGrN2icVrQJbhm7cDZT44oDpe6Ursji6OYbpan0ch6Ug9SWwf8khGOqWPn41DtsQgNsQOhzNlGPuclxVpRxtVjTZfUUYfvFKTty8GTbm5wG2eIm9Er8cDaD2ZlnG2X6iul2w5m4NLjeyg8VAtfspcNc78q81ulHDNYf4vEfb+jfvMSPPyrJZ7V6okAoQuBxfxjbY8FQuhZKd8PodaXzEXWNaz3AhAzmBxOzcCPD+vDaFA3XHYbAF9D+VSXZM3mDIOc7VI9tHLHR2j9r/KapkDEG+b4MDfnDodVVH+kHvWBMXNTwqkA9B16FQGFdOFk03z4d5gFvUPZ8GAuwKab1YN6OUFnx88QygIxF90dX22BgatvQt8lBtnrR9FyfgpBA8yw7uMkFMbQ7bjUpfjarun4dMoP+GDwXBxwKYLJ6J1cDYdJOjxpUXy47Di22NMiQIvDTmdjrDY+jGyP5hCd2Yjhff1ROucA8gOHQK/eE/yywwXGc14g+GAYbA0eYItlT8SPOIGffOh2eVEcbAwWoEPqVbrt+X2I6Lb5bpNeYEPBdoyiS5JPrTbHgEhrHDnjAb0H++HdZhIu+GYhbUpb0G2V/OWidFOwZ39MergMx7fYk3NGCrbTGcarjXGYaiMMnybCrtMxTLuxEYMYYyhKxpiPUzC2VM3FnSLamXabhBcRF5BoT3cZH/dFl4F58CHHcHKZPzrM0sOhbA9w8Aehl5MOdgjt3pjOu9fS4E2LTI6BNaxnrcW6CR3xMHoomnk3wd6rRA9j+IS+Sx9TidEVf3QtWAXznvEYceIn+NA1FaI4Gxgs6IDUq8FouLwDZukdIj6xFKMgqBecdHaw0bPiSAsMOOCMQ4nO5GQWYBXdsBxquhOFEVZUf8BcMHkcqy0GYjXdRDxzQySaBZHCvxeCoqMTUOfgQnxqvxXDxIsyyWLkcCtE9U/FUR9jcp7oNvOAvhh6NYCVr6aCtpvoWmWOnvHDkPPjEpJ7Eb6b2B0jf1uHO7vH4EW6J/pPeohlx7fAnhzQ8ps74Wy8GsaHKd9u+JLoPIONw/vCH2Zwt10Jf39zNGLrYw5hxlleNzShj55ZZU5yOiwHPy6hOYi+w8TuI/HbujvYPeYFUpy6YdKLCFxItEdTusjWt8tA5PmQ0zC6AUqOr4bFwNX4rdNMbKBbxoMG+OK9kCKcnCNQyKuG5zXr+IgxHoETP/nQjfUiunfOAAs6pOJqkBF+pSLqCKv+WPZxNK7T7erMpbAf3VivUq5IbQV+nG6OyHXCMdaOkSyQ7Jj55qGzxPERqcZzMiOryn9MN3XOTh2EjpkfMvZ5o1fd+0h2M8b4C3NxgtF9ulPv1rVdmP7pFPzwwWDMPeCCIpPR2OmyH8+jTATshgeai3hZKp2DA/mBGEKX7j75ZQdcjOfgRfBBhNka4MEWS5JVJTgSbu+LebqhANs5YwbzAZGwPnIGHnoPsN+7DSZd8EVW2hSywdLLR0WCMq4mlyxi7POXSOy5A6fIFurdT4aHewjOHH6Ckfk/Y1YLwizNmzabSby+MhdgXkOaN20wk4Zh79+cTSwXsCOC/BaQ4xEn7NDp2DTc2DiI3TyIksfg45SxKCWbIMBkic1MGsY5GCzf5ebA2Kca0nvVhLDr8cDFTRFxirE9wM1kNxg7xOK+o9TxEdvmiAt0t2PTchz37YKBeT7kXE5m1wnNHR8163+tKq5pSgh4sxyf4khYfDILLZPEt38zFHMXY7q+m4A7y+9gcOftGJb/I5YwXhH9zm2YiR8GhUHtQQlyLt6xfYFdshdv5tNCbroChgmMYafVlw+tt4ktRcqEWiRYdCtt6w/wk2crWB6bK1+ATQ5B6z5JmJx3Bf4mZUikXeLYe8G4yjsFZYl2sH+wBpm04HK7zzaILU3BBHZ3w9weXhsOz2JR+o0OXJqPRcGCPFzxN2Hnm+zYDi4/zkRqcSD6QXmIvDzTE60sj2GueGFj0aDFqHUfJE2msXpGoPaE3xHDOlNsyAppMxdCJywEqg/IlJExNoDt0WnILVmG3uyY5Fx27Y5NNrlI/2gmOm8fhnx2cWbRx4aZP2BQmLoTebxnX3+DBB/yQNC1+044sfQLf7dk7i+wU4nRGBz/tCvmtyEsUyZwBZPl5OTVdsCz2BMYsL4ntg/L5xZyTmAw84dBCCOBOUaOV/9wI2y9TE4dBYA4PhlKDCHzeIrTO4SHD4uHERmfX/ERdxu3QhqGcaI+mdUSSY/IiIrtdBk5uLqueFcsX6osgKIcIh8rDS2x3GA9ChNbYXUrSxybe1Yu1XnctzX6JE1GHjl+jNSwdO6bhkN3eEeXx6AW75hpQl++fweYrjBEwp3dYNQB+SthaLkcBusLsa2RLwxsj2JabgmWcYJBLOyK7ptseFnh5PSoTy5KlhnRwvIr8JE+F4FQ+lPDc+YjNZnqktNtLsRQTotQbYdnvF4q7j75/1YqV4x9UF2aW0a2xsA2B56sbRBPXl6PuWeE8FSFGyPDq/Bp1xiMOnOWHH3+uTJaFOR0RJ7+WrT5e1q3NT74SY3dIIIZ29V87D0EX+U3mMzY9g+wJpM2PII4fgMdF7KDBQskclmW7Ih2Lj9iZmoxAvupqOksz4SnBjIuKEf7xkhlnx4sDjeHwYzfsVJsH5XIkry+V5XfwnK8STQAE36PQcH2UXzmIA0zF+ogTO2JKCXRECVzqAm9Vylp7Pf80F7OfinQRRdCOxmQ3k9j9F5iGMi2b4KNjK1Q/g2FsdSt/66H0bzSa5ryL79Rjs8HtHi0di+VCitPM2vkaVcWW7oZDWZ1g23sb2iob4T+o0bAbYp8ykglE1nHB3KLGkCFdrWtsXUIv2gqMyggpdS1RBjveUvGZxc1R5xmDX1vLnc9+BBv7MgRGjMNiEikBYQrmvS64YA1G0ajDT/And1e8Dw/A2cDzqKrbaxAEaZyxyfTUxeWYdLdCjcs5yQ6nqaF+vJoHKPd+/w8Heh16YWB9hMwx02aslKOE4+H0RzE027oPf6hk+tGYlV78vBXg6JBtoj9rSH0jfpj1Ag3TNEknUEO0irGOZENj8opsZrv2icT71RgxN4k74UbDmuwYbQEXeymtMX5GWdxsNNKdKN3f2uoD6P+ozDCbYpMOouZIO2cTv+ErKvXcSZiPr7OHFrR8XmxC88pyiG3hsvRfwORFq3hXqp4OpFzRIOMZJwyJcBzBhgV5J59lBxcXcswaWRJvM5RVEvX8TR8eOPCGsAC2e/Lys0HGtBnhC0Mj6D8hGWaa21YbzXCnHjaOUsFAyNXtefx4r73QuNTVGp4zuyIa9Dxubi2Bzp73YDDmg2QislueHme56NiCjKqRq6E6u04rEYp2Bp5PVaPpzrHJx7j5DY9vJ0RcU56b17nYkadwVmJd8SIkxq7wbxbno7pzQfjkCe3GStLHINpiCCb1hjCOAbgbFeyDzLRAMVZVJRTzWVc0GbZKugoa+8LNHd8qsxvYTl+PvciRQ3nI09HD116DYT9hDmUhpOWI6jmsjqbyb1Zfb3nN4tKCOF4/YeCXVKgiw7e1LbeCqM58RTVlxgGrBu5Cu3Vpqjlx7qhbv2/E4jbX1Z2TXsLHB9aHZUuAOzO0leHZwClkXKPIu1ACg7uiUdqYV3MzLiBUOHYMyMhShwffmFqSumLk3PQiTW0igaFM1gVlJnfUSdJlJxJw5kilJyfO3MvwX7N/5DMhjd55qpYUMrYBSxVY8envOw+7dz0cMyNFrpYRwXjykeSkvh/l+S9D2Hfzt344VczbDqfiakq448q5iorO8wNyEfTcCDlIPbEp6Kw7kxk3AiFMPzqlFj4u4IY8YsjCYfK4u8nv+TiaNoBpBzcg/jUQtSdmYEboRZ4mO2P0cOi8L7PDmyd1R+P1quI+EDJ0U25RVkVj7loma+OcLsGzrHXVe74sHJb0enjohVJErkRNoDgHM8KMihLXz/EM06arnJa2fEryJusYHA8JIGEUBRf+oYGslaDjo+gc8kSpSCjGsiVcpPKbz5SFXVT3vFRj2dlHR/+uwddsP95FKz4+cSPk9cL5d9VsBv0aTb6F0rOz525uGS/Bv9L5iKJgjjym8FUTR0fsk/3n9aF3jE3jWRcKSKqvllZx6fK/FYvx+VlZ/FjShr2HdqHnbt/wK9mm3A+c2ol00CMiDLr03zI1rxVX+9Vn65TbpcU9ESFfRKQXpk/yY+lSrbk1v8O4louTde0t8Dx6cBGTRIxIaOUHBkxwbxSHqIF9oeW8PJpgSPilAb1AUoe8zHG14+j3LWaZirKHB9eac4t4dNMSh2fYoSbG2BGrU0oIWGVFPGyqRpfNNlUgsyp3L+y4VVKn8yd9hT1JhyQhLnZXdZmis7IpkEoOsP2s3h/N3qYBqC1zDjMWGUFObjRyowK/+QNZkHQGBywSYTDUSaUWwubSsiRkRLFLbRNiNZZP6LvienS8CNbD9Ude5yF6i5URS6okC4HaJg9Aj4tjkjD/Gzd0HjUj1PXy0ad4yP8XbP3t1NKUhVG9G0DS2ymiNwjWnElURm299ETZDutQIsj4hQjn2MfXx9xj0ZjH+1qE8eQo8rn36Whb0/cjwJcqaiQNSxqHR/u5N3gxAnIKCUnUCK6XMrtEDlapVKBrqCJXGrhKKbIyT2oqJRAb3YajgYzUEtBPjhj0ETCf2ED2EED+oy4dO3RKfJzAMf7VoUuSqOxLI1mZmjHp2Q1d3zU8JyKajWP+JQhzbUTrONqYf6hm1hBKRWOl0XSPkts5GwzRc5k0+iyeqYoo1ykV7lcCffUYp2GgC4yqW12b846huLiZlW7WymelXV8uE1csCmVBFBdWGMVjg+XAhKwG2IbVxwOcwNvNJk7DU/rTcABcc5OEMf3sbuHKQJaK9hKmT5kcnJKNnTMARskOhylb6mXceWIcBvOCt/UwPGRj35Vld/Ccnx/U3+cmC5ND7N1kd33wLnoJITK3yo44szklUR/q6/3Emulwi7lwVsuZaWgJzeoPKW1O0oVN5504CGHag4ZNVb9kx+Ly5oIrP/RDzGx0mvaW+D4dCFlXdvDBIEGO7gCSoZmdnGdhlrRhYjpsJ083lS4iXPP9GfGK53b4ihfvCqAMasIOZQaOEc1ClzNC1Po2n0d1XSwhdP0T3J1J9Kxyiic18k6D7PPcMWz4nd77hnHFRNKajq4PPseU5laFtYj4mqXGkRdJ6eBK3NlFGB4VG+khnbBASoatS2YjTNs0SX7RwQNj0LvVCaSIttfpC85el/g19Xk7NSnEGsna+TNPsMVTPNj9uq5B+NOUNHrNdpFTaovk/dmdoQGyJlxBxvZamflP652KA1uEpwYFjhh2q/+CHxkxzV44+uYuJqiuWhxlK8FUDmqEseHdxyN+QiB0Hd3T63HFoKqwqjtN0x9TQNEXScHh4WX4e1wRPVegZZexkh1uyqVD6Y2a24LHE3QgSsp7L1l4lQAn6uPHYxdd4ch5qsGSIkZytVi1VIX8aFPnqOUm0kgDHZwReGc6FIh47RaiBbLl0rQuaLiFQpy7zTtV/jvHoUiZlHPU5CPXj2xZ9wJZM/jeF/BAPIRySKxQdKAPq64c4XCHDje7574C1uHkeaWi3OU2mUliHSTo5F2rwo1RQKaKPmTMM8pLKlxxIersXPN/gwrjqRjBtWMcU4cpZvExfMopnTfJ5jVIArXaePEiYmsnlWUUa4uSplcpQpHmNli19F4FCKj78whgT5BqC/mB1/XohJPIQD52os2sdLxWVkbfxULGN1njQgXzdvppBAJLVNjN6TGjMNwjyk2yNhbMmaCOHY5QAc1KMUkbysZXeQwY9MngX1Y57ov0fzFr6tp41ifc1zVyLgqSNjiWrlvchtih6TW0igqv8ltKDmMwBTnU4TzqjQyV1V+C8mx848GmFRfurkCQ4dBDmaIa/FU8pmP4DUU2x6uaLhP0FW57EBN6L3qxYCzS5sHH5XReaK/jSNSR0npymRqYNPckHuO0qScYUCy0zT86r9bILvAPFexrk5w/cdXVVrTlM3vNdb4HKOTHwux8/YtPHxRH3ptxyGYikj7lV9G8uxJWHatF1yHv4eDu35GB48wBNl3xPuk8D2GHEPbgR/BdMAwNL21G3vu2mPNGnv1TeRYx6cYjnPao0ErC3QpjkLUzeFYGzYL/an4t3iHKyavO45f7tOxQ722+Ki7G7ZFjZeEI0XZq+DumYqGY8bhkyu7cOCZPZau8YC53HEdZuffChH9LnLF0jK/8svJmO20BJcMnTBE/yzOPrTB4uU83XRKLGv9THjsqQ8nR2NcP3wShv7RmMobIVE2pWTsdqPpiE541GQaEgItuCJeUTZWuXsiteEYjPvkCnYdeAb7pWvgwRBF862/6jGGN/0fBlBO+WVOLLKbfYW188zVnDBihqW5uu/BX/Yj0PfxWVxvNQV+c8zx66oeGHKsLQZ+ZIoBw5ri1u49uEth8DUMb1RpT/EOuE5eh+O/3MfvtRpBv8UoTHcrxhYZrHvP3oao8e1VfpdbpIQwKsfl5NlwWnIJhk5DoH/2LP6/vSsPqDlr/595ozFkLGM3ySszlhIttvLKJMtPKVxCWqaUaaEyhRSVjCtZptA0CDNFpSnR0BtzM5hcS9bE2CqEpvIKaWay/s53ud2lWzfkVW/n6y+37znnOZ/znHM+3+d5znkekjQFKwVPETl4HI72NEcHo1Gw7HwXu1P/IG7INSAic2W8s6ET4A+TexnIN7FH+3WuSHmhiy+WzMZHoUJOP8HI3RYWoYcRQKwJiroikZ8dY6cVKBjqAqvmB5B8vjc8NwhJWypOpTD9I8dhk/ycEHrNGB6ClhCJnsE9OgxjOPaPrHA3eKW1wQzb/riRnIG/BKFY48mMpeI8GgYf117Y8l0S7t19CLTtjm42K0nQ8UjURb6KK0nwcwrFNWMPCFqKIHpGojvCxvAfIYy+uSH1pQCTTcqRe0sTc4LmY8RVIUYtlmmvrQVCmblcB/ZTk65VyMxHddKHkQviWB2p6am8vgMe805iRLAnBl0JwMSlT7E4bRc8+UMQbDl2bXFA8DU9OIzrjtzch7BeuhICtWQFHTWCx7YYzOpVk17Vou+8gAzWAfO+xe1hLrDokI1Dd16hZFU0srSMYGTuw60t7PxVgmftRwB5QrgRWm4T0aaDDszUfsV6UQf4x6yBDXN/gOyc0+iInh0GwpXtDy9cbeuG7JpFvsA1o0fiKmtBklvMlOPI6jk5XXokEvM8U6HhYA+DWyJk64Vg+1ccQWfWrJDpU7C782T0edQJ7gnLYcYtZrXouCpFIm3+WwjH0CwMsrdHp0uHUPmqBMHRf8i4j5kTQ2Sd/KELPHwHoCj5Bl5+fBDC2BLoGFphcdzbjXdNenzCQQPh5Vbo/Pkoci3Ec4jjstBlwbdYKL9xKO1gZc4mMt9/QBcPXwwoSsaNlx/joDAWJTqGsFo8D722bJDZP99u3teIMBmvKD9/JLS1hc+A+0g7fR9PxRuwp0QHhv1tsZKd59zYuaW+hGCyCcpzb0FzThDm19ZHxX1h5ALEMXOitv3/LfY0xf69R+KjSpnr+e9KY3zquQ3yNRRlKfWH13fttD6KAEWgNgSYY8rFKCf3w3Tu3q5mMt7YQVTqkq//TuVHWWLN5ym1Wojrv9V6qlHR1VVP1dJq/jcQoMTnbcfx6FLoOqRicmwulqgHwjpjitQf/rZ10/IUAYoARUARgXdGfI5iqa4DUifHIneJOgKtMzAlg7suodE9lPg0uiH7bwrcJIhPgSgc3/iHYdsZwNDZH2FLFsK81qCr1xgCJnbCNBMuSQ7I3kTiIGJlYn5eoxr6KkWAIkARUIVAWc4ORPiGIFSUB23zIISs9YFdvSUvZmIsTZHpQu7Xyt6Em16xfLyQKqka1t+Z9T5s6RpsPvEYfWxCIQx0xZR6w6hh9ZVK82YINAni82bQvEapilLc/g/wSY+OfLqD1yhLX6UIUAQoAg0GAeZGYHYxIzfQNxihqCAUgXpFgBKfeoWTVkYRoAhQBCgCFAGKQENGgBKfhjw6VDaKAEWAIkARoAhQBOoVAUp86hVOWhlFgCJAEaAIUAQoAg0ZAUp8GvLoUNkoAhQBigBFgCJAEahXBJoU8SncH4rle++Qu7IuQsPzOJQlyM1PsIfVtqHY9ctc6LwF1JV3snH2YW8Y6P4P3yfyFvi8q6IVV44jp4UehvesW2Tm677/ruR+V/WejpmDzaeAJ3llGPndTyBJ6elDEaAIUASaNAJNivgwI11JUkx89q/VGKUkmSJ3Zf8atI8UIU1y0+gbqcdpBPcejNA8I6xTmZPljRqghZTlgnmUgCnkhtHUDyWJGlXA9LrvN1LUi7ePRxdn2VtsG2lHahWbz31nrCd/y/D/YldpnygCFIG3QqDJEZ8a8/8w+XWGh6NX7G6E1OE6cVWoF5/dj9+KuuJfFgYqU0Soqov+vToCTM6fFb2yFTKBkxQDR3/GBQzExJGq0wow1+u/3vuNdCSaxGVuJAfV4FzMz64523QjHT0qNkWAIlDPCFDiIwG0+CyyH+tgcF3yKtXzINDqXhcBkhpkhDZOLnilQHxet54m8n4TID5sZucFPfHbeUp8mohW025SBN4YgfdOfCqu7MPmXdkof/knKlqZwsnTEkyePelDEtBlx2NL/HWoffwM6GkDZ5J0k+QVJU8FruzbjF3Z5Xj5ZwVamTrB07KvwiWCTHniuso8hoca+hgz4DpcRwVCT9bVRRJgZsdvQ9JNoPmLFjC284QlEaIs5wAyr5Wj5OJlaDnOg9blnUgT/4Fm+tawtRqMjqXZSNvzC849aQuT0VYwH/wpmx9IrpxLECw0+d6w7WxB/HU1cF1xJonruDJscj/Sz22MEC3/gda6EzCNtMH1k8nRmY2fEvfhiUZX3H74Ep/+pY4hy1xgVNvQV5Yh99hepO8To2KAK1xt9XBn+yr8xyIIxmVc357ki/HcbB1cjIir4EAmrpWX4OJBdUzcLK2bGaOoHWL8raaIv5LGiQsq+cw9rt6RX2NgYTwSfqlAb+vxmDBqOKShN1x/d6QW4inK8OIzWyKfpL8yslzWwiybV9i//SzaTnWGoPdDZCyYCoetV2G08Cf4DCYydDPEVON/okCcjDP3niBf/Bxm62SwIQlA90Vtx5GKVnLjW+39shwcyLyG8pKLuKw1CzYfiZCQeAOtjC0xwdoEuu2kyUZV663ygWHGMX5bEm6iOV60MIYdq+/y/XWcp4XLO9Mg/qMZ9K1tYVWlI7UMNtvHHRD/rYZn6AkbZ1sMlihPHYiPnM7OssFHogQk3mgFY8sJsDbRBdt1xbG9sQ3J9wxk5iwzH6OwQ/w31Mm/DuaT4GhG5qMEV1781p+Pxjg9kj+c1Tfux26GU2H8T2l5TtVk5wc3B+K3xOO62scyfXyOm5lR+GrmIhxsMRPr101BV5Kr6/PR4yC5rLdKf9UB9Q7mmORoprDGvPH6SQtSBCgCjRCB90t88jfBbFQGHA8mwrEvWQjDR8B4vRGSLkZjApuxl2TUJb8NibeE+FgwDFoV4+cvB2La4wgUkYzBZZvMMCrDEQcTHdEXOQgfYYz1Rkm4GD2B8/NX5mCTlTmWdo7G2S0CfIo7SHE1wNS4UthLiA95J3zEEMRPPoWTASSDcPEOWGv7o3daHoT691GQ7kuIkBjaFhbw/jYCdp89xPbxXbDo1SSY9LLDhghS790ojNBeBoPMQqw3+xCVZXdxKWY6DBc+kWYHlrRjKcaxYAO0Kv4ZXw6chscRRSST+1P84kVI38MVOMHI+SEhBUmOMFhtABGJSdL7MxFT+hyFe+F3GMNsQMUpmNFvL2Y+iIV1TUpX/Au8TCcicchOtu8dS1Pg6bYOF0QVmHbmPLy73eX7tguWLBZMgscCpPuSzXiXJfa84uouJpvmAKeniP49EYLOlTgRqAPz0wFk03KuylwvJwJzi/WJ1TAzX4073WcjNisSNj2Bs8JRMI7oh10XSb0k+3TlIS9oLmyJvfvDMLxzMUkmPwCz8oJw8hgTVM7JkuwxCHN++xhj/TIw+4ohpifNxp6iZdBn9MN0Bfptv4W1ZqT1jz5BD3LNbEXpbRxYPAiCrVL5SQfgMMAJTzfm4EebT4kgqzFi1CZY/HoDC3oovE+I4t2CZHgMmoMDzYwRlLkPvkNbojTFFQazfoffqSzuCn+VelsD6WFjyOIx+dRJBJB6ineVsx2iAAAOsklEQVRYQ9u/N9LyhNC/z2Mv1oaFhTe+jbDDZw+3Y3wXX3Tak0fGRy4/tnwDkj5G/45EQWdUngiEjvlpBBDi7sxk5K4D8WF0tiDZA4PmHEAz4yBk7vPF0Jal7HyZ9bsfTjF6+Fw6to/7zMPGTV0gJB8RzdddQbZHJZlrExBjmkYywRP9Jh8lZ5eZYHzeMlzcMhLPC9Lha2yHXUOicCNhNrRJd8pOhuEL032w2B8Hn2HtIHYfAKen0fg9UYDOlScQqGOO0wGEjJJOcPF38bAUH0Mwybhe/POXGDjtMSKK4jC6/D/Y76sFp98DcSR9DqF9amjduTsha0xGbitMiDFFGskizSRqrzi7DCbj87CM18NGuGZTkSkCFIG3ROD9Ep+jZFE3jYL+1utkcSNmETb53iKpNeZMCHobhUEvgSEHzMJ/Bqv0RmOldiQupjqiwLcTTKP0sfU6WeDZ4oOgu0ivatNm/x/UCwlFu8EWZx6FNrgyWoh7sBd2PNlKmdECU/+Kw4O9dmjHv6+xMQ9ZnswuQgiaUBcDA7VlypDN9YNJyFmVi/ML+bNgCpvNmZDeMArTk8pyZhX0Rq+EduRFJGquhuboo/DLPQ9JcYAs/D2GY5fzadwYEo0Wdk8Qm/MjbNiv+Eqkz1uMZhvWYaxSBSgje502Ju2bgYNFPFki7+VHjYD2XBkypog3C48MhmWkX9qTcNj9OG6vGMa1lCOE7sDvYX38NiQ/VReBw+Np8t9kI5ZYSc4gpLcRwvQSWNL6ZNs4fDb7HDyPlGDtSOWbs9zYqJNN98+WLMGpMU5LUX5iSUqc0hUzc/xx+gaXbLEsxR7/nH0M89LysZy0q6gz5BeED9JFrM0F5BIizD0K9ajSW6VjwtW7SIvXK+adSkJgW0zFX3EPsJcoHyeLBjbmZYFTtRwIdQciyUFGr6rVzY/1YXccv70C3Chx5b635setDsRHOjdiYXMhlxAzSdcJ6e46Ezn+RA9DGAS5sT0cwNStTwjqfaBDd5T9YIb+3p9i1yNCbCVDXkY+Itq7QI2fv+wcWD9WqpNkfg/eaoKs78bgTyKj9qTDcJfRK3aefW9N+kUS/8roDrsSrNLD6JXaiLyYCkcy9/c6fIBJOauQK+vqYghqf298uusRIY5VQmGHdXu4qHF6WAudVDqK9EeKAEWg8SPwfokPj19F6TmcPJKHWxeiseibQxjPW2O4jQBSq4lSvElumXMncSTvFi5EL8I3h8bzxOcqSbjXF18/U1gM5TZ7/p3CqVizcTq0+PqLdn8Nr8tzuUVUFTlgy6giPvymBwVZ+PYOebXH6A0yVgp+s2UWaPtzATh+fTqOEqvUotPN0FFnKMwFdpjvKuPKqIYLCfRsYYGtk5LxN/l6rnLQKG6AqvqW7oIWFluhPz+efK0351vJRsQ0EgSu5FScVAwODzIQcjE46S4tYLF1nBzJLMs7C/G5fBTuWwX3H/8hN9bs+Mfa4EJuACT7sHSDliHIMv2XJzKcHHH2e/AqVrltrCbiE28rTzaYYOq+XxcjQGZjrklvlarpVZLMtu/XKJy6BhunV2kadn/thctzubZqkmWRXs3yA/xY689HPLHWVY1SxDSE9+LLvRbxiYetHAHn50gx0UOWWCkjtYXYZNYDbg8U9Zsj70J9nuzlM5ZR8rFTRYTG4+eJGWD4FKcb+pgfTyys0k5gWngv7MnVRTC3EEg/LBRAVkZ8ColFuIfbg2rrx4nAHhgu1JfRw8a/kNMeUAQoAnVH4P0Sn+IshEy3RMyHAdi51RumjyLlLD7cAtW+RuJTnBWC6ZYx+DBgJ7Z6m+JRpKzFh19029dGfGonJDVtstU3KFXEpwZZ+HFiF+04+ypLFfdzJVjL0y7+96p4nYPYl7Qbv903xveXD+Erzggl/7Bf2vZIU9zwX5f4sO/HSd2CddYr5cSHG8/O7BF/j3/sgMu4ucg224w9kTboK2LayqlOfOJt5b/iGRkUCFtFaSnQkUsQK2+xqgGHGokSWzlrmVEkPmXELdXe/gBm7/8bMYa1661SmHiZa9u834z4qCZ3dXF1SXVdkfiUsRYS+wOSKwKUjW1N84izPAU2k8xB3nJWshZ5mZ9jjeAa/PZ5si5T5XOAR5K47noMF6J9XYkPmSulxDpYsmWo0g8nzmLbTMUHVZ2Vnb5IEaAINDIE3iPxqcQvHl0xNlHGHSOzoXmVxuCxRjomzDyMOZkPSOyMFNkCsRgwrMDqrmOROOMgioipnLFqSDcOL5TGPIZG+gTMPO0r4wKovmmy1pbNxNoia6Inro0ccSE0mTtBVFlFWLFUER9+wT88B5kP1kPalQIwXelyzp64oNTx/W1CZCSB0Ly7IrDT97jtfQwmpzyk7iYSLyQcOhCpjiS2Yr6yG+k4t9KyHqTsoa9QVWUdiI+c9amQuAp6uOGB4oaj7A4dOcVXtjnyG+ilYOJ2csAJciprLjYiL4vb+KSb88/QOZ4DPRcLPGYsPiqJD0MQXdEskYtJkicPNeBAgm3FhZowJtGvdbX4sKRtrRFxVSbgk8Da9RYuyoLOD8Gr/WhsttyDR8T6VGWFq4MstVt8arK2cLplTIK+3474cKR9rZHENaRsbCVz2U5ev3lX3sF5mXjAT2D29NXYg3D0M0KRYTSZv5yzqSbrDDvX+92GL3G3HZ4jrYctJKOHchYf4o6dkWGNH/WjSFuJsJNbP/gPioPzFOZiI1u5qbgUAYrAGyPwHokPv2CXrKhyZZSxfv44jE3+A5axC9A6yQ9XiYsnTHsnF/DIdJME9jq430dIJOBCNuWSFZJYDD7WIW4skv+wROyC1kjyu0oCIjdj7OFLJB6F22qYgFIt+zTYSNwwfBxA65hbJM6CbYEEUgphFTMMaWSx/lAJ8eG+GA1kLDSqiA9TJxOcGQbtnVwAKtcVB7jfD8Fumytw6WOB0z4XuABrXoahQ1JhywTUFrjiAycNmXgdhkRoQzy3CN+x0c7VHzYomVhQfC5wgbSkNUIQ+hELUg/ply5vGWpTFejNBJQS10SexPpUiUNemhid7orjl4ibg22K1OPgjvshu5Vbm1hRODzEJA7kEgkEqurPwAgSv3WRuL8usSRgw1ipK44jIM+x4kIMKpYehe3ehXjB4JzkUN3iw7t38iNv49BXZRCOiMGwLI5QKhKZ6jiQgFehFWKGpbGB6DURnyASi3OLxHhJdG5Gv1nI8z+FrIXt8APj1qlNb/cqDzrPJ66X/t6tEXOLxJOxFauShbeYGNTm6uIDxUenw/W4jJ5LdIsxCb6WqysIWnHSuVCcMgP9ZuXBXxLYzZMZdUVX5yXiyjNcrqDfpKy7OrbLBRLzZPSBu1z8GYl2h5fmaKS7SnWmaq7v/hJPmEMOYdrYyQbZV9dD1hW5fDhLZkyIzP93fzXRjcfE3W2I5Qrrx4x+7lDfzughqajwR1j2+xKHLZNRSNYYGvPzxnsJLUgRaDQIvEfiQxbs6ynwcfBGtk4A/E3uISPfBPbt18E15QV0v1iCrcvN0I4c003yc0LoNWN4CFpCJHoG9+gwjCEnjK6n+MDBOxs6Af4wuZeBfBN7tF/nipQXuvhiyVYsN2uH4qwo+PknoK2tDwbcT8Pp+08h3rAHJTqG6G+7kgRpjuTlCMY1PQeM656L3IfWWLpSALVkFzhHnMDN0idQb9sd3Ww84Jq/BREnbqL0iQY69hwGn9Av8Ovi1Th69yGeanREz2E+cOu1BRuS7oH8hLbdu8Fm5WGQZlBxJQl+TqG4ZuwBQUsRRM/cER02ht9csxDu5oW0NjNg2/8GkjP+giB0DTyZyxTJxqURXg6rzp9jFDny/Vwch6wuC/DtwhG1XI5ITob9WwjH0CwMsrdHp0uHUPmqBMHRsjf4MqdeSHs/dIGH7wAUJd/Ay48PQhhbAh1DKyyOi8GsXsXICneDW+pLCCaboDz3FjTnBGF+rZc8csQn334+erXWhJlOPmJi7sDq2w3wNuWO7xdnhcPNOQbPbAMws/UFiNtNglm2J4Kv9iSn6ObBVLxSBucOGOi6DTGzJH49MvY7XDAuqARjRn6AByPX4ifnj7DTxVl+bLYx8hMcjkRinmcqNBzsYXBLhGy9EGz/SgPJSt/n3DYbtdwwsU0H6Jip4df1InTwj8EaG+6qhDrprdIlgNfZ4GvQcxiH7rm5eGi9FCsFajKyqHM64+GK/C0ROHGzlFxhwOnVtphZyk/SSfB0S8VLwWSYlOfiluYcBM0fgavkNN1iVhefQqNjT9iu5XRR6cOS/I3QcpuINh10YKb2K9aLOsA/Zg1smDsmjgoxanES7nGKjW5tLRBKTktJqmNxcVqBgqEusGp+AMnne8NzgxAChbuxmCD7saWRfLC0jCTE9R3u5obUlwJMNilH7i1NzAmaD07VyFF38iHkFHoNxh4CtBSJ8Mw9GmFjuI8IolDEbT4FuztPRp9HneCesBxk+jODhRQfJ6woGAoXq+Y4kHwevT03QCjgL7gsOwT/Cc44YroN6WFkvWk0SzcVlCJAEXhTBN4r8XlToWm5N0Sgrl/+b1i9tJjyGJ+3rva/UoHyGJ//StPvuxGW+CjG+NS3UIxbTIBrfvv4k2v1XT+tjyJAEaAI1I4AJT5NSUMo8anDaFPiI3+qqw6QqXqFuJOm/SsYWPYbfhp/BFO8m2Erie2j1hVVwNG/UwQoAu8CAUp83gWqDbDOAlE4wpauweYTj9HHJhTCQFdMkVxtW5/yFogQ/o0/wradIQHozvAPW4KF5iTAtjE8JNB4R4QvQkJFyNM2R1DIWvjYNY2kl2U5OxDhG4JQUR60zYMQstYHdvWlH2XkyH0fH7TZsgGfxO+Hzvr17CWW9KEIUAQoAu8DAUp83gfqtE2KQFNDgLkVu/hPtGRvVG5qnaf9pQhQBBoSApT4NKTRoLJQBCgCFAGKAEWAIvBOEaDE553CSyunCFAEKAIUAYoARaAhIUCJT0MaDSoLRYAiQBGgCFAEKALvFAFKfN4pvLRyigBFgCJAEaAIUAQaEgL/D43M6yg8BoeVAAAAAElFTkSuQmCC;" vertex="1" parent="1">
          <mxGeometry x="40" y="520" width="574" height="86" as="geometry" />
        </mxCell>
        <mxCell id="MhJ3nKYvm6UDi0r_VbmX-31" value="HABITACION" style="swimlane;fontStyle=0;childLayout=stackLayout;horizontal=1;startSize=26;horizontalStack=0;resizeParent=1;resizeParentMax=0;resizeLast=0;collapsible=1;marginBottom=0;align=center;fontSize=14;fillColor=#ffe6cc;strokeColor=#d79b00;" vertex="1" parent="1">
          <mxGeometry x="400" y="360" width="160" height="86" as="geometry" />
        </mxCell>
        <mxCell id="MhJ3nKYvm6UDi0r_VbmX-32" value="PRECIO" style="text;strokeColor=none;fillColor=none;spacingLeft=4;spacingRight=4;overflow=hidden;rotatable=0;points=[[0,0.5],[1,0.5]];portConstraint=eastwest;fontSize=12;whiteSpace=wrap;html=1;" vertex="1" parent="MhJ3nKYvm6UDi0r_VbmX-31">
          <mxGeometry y="26" width="160" height="30" as="geometry" />
        </mxCell>
        <mxCell id="MhJ3nKYvm6UDi0r_VbmX-33" value="TIPO" style="text;strokeColor=none;fillColor=none;spacingLeft=4;spacingRight=4;overflow=hidden;rotatable=0;points=[[0,0.5],[1,0.5]];portConstraint=eastwest;fontSize=12;whiteSpace=wrap;html=1;" vertex="1" parent="MhJ3nKYvm6UDi0r_VbmX-31">
          <mxGeometry y="56" width="160" height="30" as="geometry" />
        </mxCell>
        <mxCell id="MhJ3nKYvm6UDi0r_VbmX-37" value="1.N" style="text;html=1;align=center;verticalAlign=middle;resizable=0;points=[];autosize=1;strokeColor=none;fillColor=none;" vertex="1" parent="1">
          <mxGeometry x="480" y="330" width="40" height="30" as="geometry" />
        </mxCell>
        <mxCell id="MhJ3nKYvm6UDi0r_VbmX-40" value="FECHA INGRESO" style="whiteSpace=wrap;html=1;fillColor=#ffe6cc;strokeColor=#d79b00;labelBackgroundColor=none;rounded=0;" vertex="1" parent="1">
          <mxGeometry x="594" y="220" width="76" height="30" as="geometry" />
        </mxCell>
        <mxCell id="MhJ3nKYvm6UDi0r_VbmX-46" value="FECHA SALIDA" style="whiteSpace=wrap;html=1;fillColor=#ffe6cc;strokeColor=#d79b00;labelBackgroundColor=none;rounded=0;" vertex="1" parent="1">
          <mxGeometry x="594" y="260" width="76" height="30" as="geometry" />
        </mxCell>
      </root>
    </mxGraphModel>
  </diagram>
</mxfile>
